%TF.GenerationSoftware,KiCad,Pcbnew,(6.0.5-0)*%
%TF.CreationDate,2022-07-04T15:33:58-04:00*%
%TF.ProjectId,SVI328MSX,53564933-3238-44d5-9358-2e6b69636164,rev?*%
%TF.SameCoordinates,Original*%
%TF.FileFunction,Legend,Top*%
%TF.FilePolarity,Positive*%
%FSLAX46Y46*%
G04 Gerber Fmt 4.6, Leading zero omitted, Abs format (unit mm)*
G04 Created by KiCad (PCBNEW (6.0.5-0)) date 2022-07-04 15:33:58*
%MOMM*%
%LPD*%
G01*
G04 APERTURE LIST*
%ADD10C,0.150000*%
%ADD11C,0.100000*%
%ADD12C,0.120000*%
%ADD13C,0.010000*%
G04 APERTURE END LIST*
D10*
X134571428Y-47357142D02*
X134785714Y-47428571D01*
X135142857Y-47428571D01*
X135285714Y-47357142D01*
X135357142Y-47285714D01*
X135428571Y-47142857D01*
X135428571Y-47000000D01*
X135357142Y-46857142D01*
X135285714Y-46785714D01*
X135142857Y-46714285D01*
X134857142Y-46642857D01*
X134714285Y-46571428D01*
X134642857Y-46500000D01*
X134571428Y-46357142D01*
X134571428Y-46214285D01*
X134642857Y-46071428D01*
X134714285Y-46000000D01*
X134857142Y-45928571D01*
X135214285Y-45928571D01*
X135428571Y-46000000D01*
X135857142Y-45928571D02*
X136357142Y-47428571D01*
X136857142Y-45928571D01*
X137357142Y-47428571D02*
X137357142Y-45928571D01*
X138071428Y-46857142D02*
X139214285Y-46857142D01*
X139785714Y-45928571D02*
X140714285Y-45928571D01*
X140214285Y-46500000D01*
X140428571Y-46500000D01*
X140571428Y-46571428D01*
X140642857Y-46642857D01*
X140714285Y-46785714D01*
X140714285Y-47142857D01*
X140642857Y-47285714D01*
X140571428Y-47357142D01*
X140428571Y-47428571D01*
X140000000Y-47428571D01*
X139857142Y-47357142D01*
X139785714Y-47285714D01*
X141285714Y-46071428D02*
X141357142Y-46000000D01*
X141500000Y-45928571D01*
X141857142Y-45928571D01*
X142000000Y-46000000D01*
X142071428Y-46071428D01*
X142142857Y-46214285D01*
X142142857Y-46357142D01*
X142071428Y-46571428D01*
X141214285Y-47428571D01*
X142142857Y-47428571D01*
X143000000Y-46571428D02*
X142857142Y-46500000D01*
X142785714Y-46428571D01*
X142714285Y-46285714D01*
X142714285Y-46214285D01*
X142785714Y-46071428D01*
X142857142Y-46000000D01*
X143000000Y-45928571D01*
X143285714Y-45928571D01*
X143428571Y-46000000D01*
X143500000Y-46071428D01*
X143571428Y-46214285D01*
X143571428Y-46285714D01*
X143500000Y-46428571D01*
X143428571Y-46500000D01*
X143285714Y-46571428D01*
X143000000Y-46571428D01*
X142857142Y-46642857D01*
X142785714Y-46714285D01*
X142714285Y-46857142D01*
X142714285Y-47142857D01*
X142785714Y-47285714D01*
X142857142Y-47357142D01*
X143000000Y-47428571D01*
X143285714Y-47428571D01*
X143428571Y-47357142D01*
X143500000Y-47285714D01*
X143571428Y-47142857D01*
X143571428Y-46857142D01*
X143500000Y-46714285D01*
X143428571Y-46642857D01*
X143285714Y-46571428D01*
X146214285Y-47428571D02*
X145714285Y-46714285D01*
X145357142Y-47428571D02*
X145357142Y-45928571D01*
X145928571Y-45928571D01*
X146071428Y-46000000D01*
X146142857Y-46071428D01*
X146214285Y-46214285D01*
X146214285Y-46428571D01*
X146142857Y-46571428D01*
X146071428Y-46642857D01*
X145928571Y-46714285D01*
X145357142Y-46714285D01*
X147142857Y-45928571D02*
X147428571Y-45928571D01*
X147571428Y-46000000D01*
X147714285Y-46142857D01*
X147785714Y-46428571D01*
X147785714Y-46928571D01*
X147714285Y-47214285D01*
X147571428Y-47357142D01*
X147428571Y-47428571D01*
X147142857Y-47428571D01*
X147000000Y-47357142D01*
X146857142Y-47214285D01*
X146785714Y-46928571D01*
X146785714Y-46428571D01*
X146857142Y-46142857D01*
X147000000Y-46000000D01*
X147142857Y-45928571D01*
X148428571Y-47428571D02*
X148428571Y-45928571D01*
X148928571Y-47000000D01*
X149428571Y-45928571D01*
X149428571Y-47428571D01*
X152142857Y-47285714D02*
X152071428Y-47357142D01*
X151857142Y-47428571D01*
X151714285Y-47428571D01*
X151500000Y-47357142D01*
X151357142Y-47214285D01*
X151285714Y-47071428D01*
X151214285Y-46785714D01*
X151214285Y-46571428D01*
X151285714Y-46285714D01*
X151357142Y-46142857D01*
X151500000Y-46000000D01*
X151714285Y-45928571D01*
X151857142Y-45928571D01*
X152071428Y-46000000D01*
X152142857Y-46071428D01*
X153428571Y-47428571D02*
X153428571Y-46642857D01*
X153357142Y-46500000D01*
X153214285Y-46428571D01*
X152928571Y-46428571D01*
X152785714Y-46500000D01*
X153428571Y-47357142D02*
X153285714Y-47428571D01*
X152928571Y-47428571D01*
X152785714Y-47357142D01*
X152714285Y-47214285D01*
X152714285Y-47071428D01*
X152785714Y-46928571D01*
X152928571Y-46857142D01*
X153285714Y-46857142D01*
X153428571Y-46785714D01*
X154142857Y-47428571D02*
X154142857Y-46428571D01*
X154142857Y-46714285D02*
X154214285Y-46571428D01*
X154285714Y-46500000D01*
X154428571Y-46428571D01*
X154571428Y-46428571D01*
X154857142Y-46428571D02*
X155428571Y-46428571D01*
X155071428Y-45928571D02*
X155071428Y-47214285D01*
X155142857Y-47357142D01*
X155285714Y-47428571D01*
X155428571Y-47428571D01*
X155928571Y-47428571D02*
X155928571Y-46428571D01*
X155928571Y-46714285D02*
X156000000Y-46571428D01*
X156071428Y-46500000D01*
X156214285Y-46428571D01*
X156357142Y-46428571D01*
X156857142Y-47428571D02*
X156857142Y-46428571D01*
X156857142Y-45928571D02*
X156785714Y-46000000D01*
X156857142Y-46071428D01*
X156928571Y-46000000D01*
X156857142Y-45928571D01*
X156857142Y-46071428D01*
X158214285Y-47428571D02*
X158214285Y-45928571D01*
X158214285Y-47357142D02*
X158071428Y-47428571D01*
X157785714Y-47428571D01*
X157642857Y-47357142D01*
X157571428Y-47285714D01*
X157500000Y-47142857D01*
X157500000Y-46714285D01*
X157571428Y-46571428D01*
X157642857Y-46500000D01*
X157785714Y-46428571D01*
X158071428Y-46428571D01*
X158214285Y-46500000D01*
X159571428Y-46428571D02*
X159571428Y-47642857D01*
X159500000Y-47785714D01*
X159428571Y-47857142D01*
X159285714Y-47928571D01*
X159071428Y-47928571D01*
X158928571Y-47857142D01*
X159571428Y-47357142D02*
X159428571Y-47428571D01*
X159142857Y-47428571D01*
X159000000Y-47357142D01*
X158928571Y-47285714D01*
X158857142Y-47142857D01*
X158857142Y-46714285D01*
X158928571Y-46571428D01*
X159000000Y-46500000D01*
X159142857Y-46428571D01*
X159428571Y-46428571D01*
X159571428Y-46500000D01*
X160857142Y-47357142D02*
X160714285Y-47428571D01*
X160428571Y-47428571D01*
X160285714Y-47357142D01*
X160214285Y-47214285D01*
X160214285Y-46642857D01*
X160285714Y-46500000D01*
X160428571Y-46428571D01*
X160714285Y-46428571D01*
X160857142Y-46500000D01*
X160928571Y-46642857D01*
X160928571Y-46785714D01*
X160214285Y-46928571D01*
X148190476Y-49452380D02*
X148190476Y-48452380D01*
X148761904Y-49452380D01*
X148761904Y-48452380D01*
X149380952Y-49452380D02*
X149285714Y-49404761D01*
X149238095Y-49357142D01*
X149190476Y-49261904D01*
X149190476Y-48976190D01*
X149238095Y-48880952D01*
X149285714Y-48833333D01*
X149380952Y-48785714D01*
X149523809Y-48785714D01*
X149619047Y-48833333D01*
X149666666Y-48880952D01*
X149714285Y-48976190D01*
X149714285Y-49261904D01*
X149666666Y-49357142D01*
X149619047Y-49404761D01*
X149523809Y-49452380D01*
X149380952Y-49452380D01*
X150523809Y-49404761D02*
X150428571Y-49452380D01*
X150238095Y-49452380D01*
X150142857Y-49404761D01*
X150095238Y-49309523D01*
X150095238Y-48928571D01*
X150142857Y-48833333D01*
X150238095Y-48785714D01*
X150428571Y-48785714D01*
X150523809Y-48833333D01*
X150571428Y-48928571D01*
X150571428Y-49023809D01*
X150095238Y-49119047D01*
X151142857Y-49452380D02*
X151047619Y-49404761D01*
X151000000Y-49309523D01*
X151000000Y-48452380D01*
X152761904Y-49452380D02*
X152285714Y-49452380D01*
X152285714Y-48452380D01*
X153238095Y-49452380D02*
X153142857Y-49404761D01*
X153095238Y-49309523D01*
X153095238Y-48452380D01*
X153761904Y-49452380D02*
X153666666Y-49404761D01*
X153619047Y-49357142D01*
X153571428Y-49261904D01*
X153571428Y-48976190D01*
X153619047Y-48880952D01*
X153666666Y-48833333D01*
X153761904Y-48785714D01*
X153904761Y-48785714D01*
X154000000Y-48833333D01*
X154047619Y-48880952D01*
X154095238Y-48976190D01*
X154095238Y-49261904D01*
X154047619Y-49357142D01*
X154000000Y-49404761D01*
X153904761Y-49452380D01*
X153761904Y-49452380D01*
X154523809Y-48785714D02*
X154523809Y-49785714D01*
X154523809Y-48833333D02*
X154619047Y-48785714D01*
X154809523Y-48785714D01*
X154904761Y-48833333D01*
X154952380Y-48880952D01*
X155000000Y-48976190D01*
X155000000Y-49261904D01*
X154952380Y-49357142D01*
X154904761Y-49404761D01*
X154809523Y-49452380D01*
X154619047Y-49452380D01*
X154523809Y-49404761D01*
X155428571Y-49452380D02*
X155428571Y-48785714D01*
X155428571Y-48452380D02*
X155380952Y-48500000D01*
X155428571Y-48547619D01*
X155476190Y-48500000D01*
X155428571Y-48452380D01*
X155428571Y-48547619D01*
X155857142Y-49404761D02*
X155952380Y-49452380D01*
X156142857Y-49452380D01*
X156238095Y-49404761D01*
X156285714Y-49309523D01*
X156285714Y-49261904D01*
X156238095Y-49166666D01*
X156142857Y-49119047D01*
X156000000Y-49119047D01*
X155904761Y-49071428D01*
X155857142Y-48976190D01*
X155857142Y-48928571D01*
X155904761Y-48833333D01*
X156000000Y-48785714D01*
X156142857Y-48785714D01*
X156238095Y-48833333D01*
X157428571Y-48547619D02*
X157476190Y-48500000D01*
X157571428Y-48452380D01*
X157809523Y-48452380D01*
X157904761Y-48500000D01*
X157952380Y-48547619D01*
X158000000Y-48642857D01*
X158000000Y-48738095D01*
X157952380Y-48880952D01*
X157380952Y-49452380D01*
X158000000Y-49452380D01*
X158619047Y-48452380D02*
X158714285Y-48452380D01*
X158809523Y-48500000D01*
X158857142Y-48547619D01*
X158904761Y-48642857D01*
X158952380Y-48833333D01*
X158952380Y-49071428D01*
X158904761Y-49261904D01*
X158857142Y-49357142D01*
X158809523Y-49404761D01*
X158714285Y-49452380D01*
X158619047Y-49452380D01*
X158523809Y-49404761D01*
X158476190Y-49357142D01*
X158428571Y-49261904D01*
X158380952Y-49071428D01*
X158380952Y-48833333D01*
X158428571Y-48642857D01*
X158476190Y-48547619D01*
X158523809Y-48500000D01*
X158619047Y-48452380D01*
X159333333Y-48547619D02*
X159380952Y-48500000D01*
X159476190Y-48452380D01*
X159714285Y-48452380D01*
X159809523Y-48500000D01*
X159857142Y-48547619D01*
X159904761Y-48642857D01*
X159904761Y-48738095D01*
X159857142Y-48880952D01*
X159285714Y-49452380D01*
X159904761Y-49452380D01*
X160857142Y-49452380D02*
X160285714Y-49452380D01*
X160571428Y-49452380D02*
X160571428Y-48452380D01*
X160476190Y-48595238D01*
X160380952Y-48690476D01*
X160285714Y-48738095D01*
%TO.C,J1*%
X149874666Y-90467380D02*
X149874666Y-91181666D01*
X149827047Y-91324523D01*
X149731809Y-91419761D01*
X149588952Y-91467380D01*
X149493714Y-91467380D01*
X150874666Y-91467380D02*
X150303238Y-91467380D01*
X150588952Y-91467380D02*
X150588952Y-90467380D01*
X150493714Y-90610238D01*
X150398476Y-90705476D01*
X150303238Y-90753095D01*
%TO.C,U2*%
X135282380Y-55571904D02*
X136091904Y-55571904D01*
X136187142Y-55524285D01*
X136234761Y-55476666D01*
X136282380Y-55381428D01*
X136282380Y-55190952D01*
X136234761Y-55095714D01*
X136187142Y-55048095D01*
X136091904Y-55000476D01*
X135282380Y-55000476D01*
X135377619Y-54571904D02*
X135330000Y-54524285D01*
X135282380Y-54429047D01*
X135282380Y-54190952D01*
X135330000Y-54095714D01*
X135377619Y-54048095D01*
X135472857Y-54000476D01*
X135568095Y-54000476D01*
X135710952Y-54048095D01*
X136282380Y-54619523D01*
X136282380Y-54000476D01*
X123357142Y-54262380D02*
X124023809Y-54262380D01*
X123595238Y-55262380D01*
X124833333Y-54595714D02*
X124833333Y-55262380D01*
X124595238Y-54214761D02*
X124357142Y-54929047D01*
X124976190Y-54929047D01*
X125833333Y-55262380D02*
X125357142Y-55262380D01*
X125357142Y-54262380D01*
X126119047Y-55214761D02*
X126261904Y-55262380D01*
X126500000Y-55262380D01*
X126595238Y-55214761D01*
X126642857Y-55167142D01*
X126690476Y-55071904D01*
X126690476Y-54976666D01*
X126642857Y-54881428D01*
X126595238Y-54833809D01*
X126500000Y-54786190D01*
X126309523Y-54738571D01*
X126214285Y-54690952D01*
X126166666Y-54643333D01*
X126119047Y-54548095D01*
X126119047Y-54452857D01*
X126166666Y-54357619D01*
X126214285Y-54310000D01*
X126309523Y-54262380D01*
X126547619Y-54262380D01*
X126690476Y-54310000D01*
X127309523Y-54262380D02*
X127404761Y-54262380D01*
X127500000Y-54310000D01*
X127547619Y-54357619D01*
X127595238Y-54452857D01*
X127642857Y-54643333D01*
X127642857Y-54881428D01*
X127595238Y-55071904D01*
X127547619Y-55167142D01*
X127500000Y-55214761D01*
X127404761Y-55262380D01*
X127309523Y-55262380D01*
X127214285Y-55214761D01*
X127166666Y-55167142D01*
X127119047Y-55071904D01*
X127071428Y-54881428D01*
X127071428Y-54643333D01*
X127119047Y-54452857D01*
X127166666Y-54357619D01*
X127214285Y-54310000D01*
X127309523Y-54262380D01*
X128214285Y-54690952D02*
X128119047Y-54643333D01*
X128071428Y-54595714D01*
X128023809Y-54500476D01*
X128023809Y-54452857D01*
X128071428Y-54357619D01*
X128119047Y-54310000D01*
X128214285Y-54262380D01*
X128404761Y-54262380D01*
X128500000Y-54310000D01*
X128547619Y-54357619D01*
X128595238Y-54452857D01*
X128595238Y-54500476D01*
X128547619Y-54595714D01*
X128500000Y-54643333D01*
X128404761Y-54690952D01*
X128214285Y-54690952D01*
X128119047Y-54738571D01*
X128071428Y-54786190D01*
X128023809Y-54881428D01*
X128023809Y-55071904D01*
X128071428Y-55167142D01*
X128119047Y-55214761D01*
X128214285Y-55262380D01*
X128404761Y-55262380D01*
X128500000Y-55214761D01*
X128547619Y-55167142D01*
X128595238Y-55071904D01*
X128595238Y-54881428D01*
X128547619Y-54786190D01*
X128500000Y-54738571D01*
X128404761Y-54690952D01*
%TO.C,U1*%
X153032380Y-72381904D02*
X153841904Y-72381904D01*
X153937142Y-72334285D01*
X153984761Y-72286666D01*
X154032380Y-72191428D01*
X154032380Y-72000952D01*
X153984761Y-71905714D01*
X153937142Y-71858095D01*
X153841904Y-71810476D01*
X153032380Y-71810476D01*
X154032380Y-70810476D02*
X154032380Y-71381904D01*
X154032380Y-71096190D02*
X153032380Y-71096190D01*
X153175238Y-71191428D01*
X153270476Y-71286666D01*
X153318095Y-71381904D01*
X132059523Y-71297619D02*
X132107142Y-71250000D01*
X132202380Y-71202380D01*
X132440476Y-71202380D01*
X132535714Y-71250000D01*
X132583333Y-71297619D01*
X132630952Y-71392857D01*
X132630952Y-71488095D01*
X132583333Y-71630952D01*
X132011904Y-72202380D01*
X132630952Y-72202380D01*
X132964285Y-71202380D02*
X133630952Y-71202380D01*
X133202380Y-72202380D01*
X134583333Y-72107142D02*
X134535714Y-72154761D01*
X134392857Y-72202380D01*
X134297619Y-72202380D01*
X134154761Y-72154761D01*
X134059523Y-72059523D01*
X134011904Y-71964285D01*
X133964285Y-71773809D01*
X133964285Y-71630952D01*
X134011904Y-71440476D01*
X134059523Y-71345238D01*
X134154761Y-71250000D01*
X134297619Y-71202380D01*
X134392857Y-71202380D01*
X134535714Y-71250000D01*
X134583333Y-71297619D01*
X134964285Y-71297619D02*
X135011904Y-71250000D01*
X135107142Y-71202380D01*
X135345238Y-71202380D01*
X135440476Y-71250000D01*
X135488095Y-71297619D01*
X135535714Y-71392857D01*
X135535714Y-71488095D01*
X135488095Y-71630952D01*
X134916666Y-72202380D01*
X135535714Y-72202380D01*
X136440476Y-71202380D02*
X135964285Y-71202380D01*
X135916666Y-71678571D01*
X135964285Y-71630952D01*
X136059523Y-71583333D01*
X136297619Y-71583333D01*
X136392857Y-71630952D01*
X136440476Y-71678571D01*
X136488095Y-71773809D01*
X136488095Y-72011904D01*
X136440476Y-72107142D01*
X136392857Y-72154761D01*
X136297619Y-72202380D01*
X136059523Y-72202380D01*
X135964285Y-72154761D01*
X135916666Y-72107142D01*
X137345238Y-71202380D02*
X137154761Y-71202380D01*
X137059523Y-71250000D01*
X137011904Y-71297619D01*
X136916666Y-71440476D01*
X136869047Y-71630952D01*
X136869047Y-72011904D01*
X136916666Y-72107142D01*
X136964285Y-72154761D01*
X137059523Y-72202380D01*
X137250000Y-72202380D01*
X137345238Y-72154761D01*
X137392857Y-72107142D01*
X137440476Y-72011904D01*
X137440476Y-71773809D01*
X137392857Y-71678571D01*
X137345238Y-71630952D01*
X137250000Y-71583333D01*
X137059523Y-71583333D01*
X136964285Y-71630952D01*
X136916666Y-71678571D01*
X136869047Y-71773809D01*
%TO.C,C1*%
X141107142Y-56166666D02*
X141154761Y-56214285D01*
X141202380Y-56357142D01*
X141202380Y-56452380D01*
X141154761Y-56595238D01*
X141059523Y-56690476D01*
X140964285Y-56738095D01*
X140773809Y-56785714D01*
X140630952Y-56785714D01*
X140440476Y-56738095D01*
X140345238Y-56690476D01*
X140250000Y-56595238D01*
X140202380Y-56452380D01*
X140202380Y-56357142D01*
X140250000Y-56214285D01*
X140297619Y-56166666D01*
X141202380Y-55214285D02*
X141202380Y-55785714D01*
X141202380Y-55500000D02*
X140202380Y-55500000D01*
X140345238Y-55595238D01*
X140440476Y-55690476D01*
X140488095Y-55785714D01*
D11*
X138421428Y-57278571D02*
X138421428Y-57221428D01*
X138450000Y-57164285D01*
X138478571Y-57135714D01*
X138535714Y-57107142D01*
X138650000Y-57078571D01*
X138792857Y-57078571D01*
X138907142Y-57107142D01*
X138964285Y-57135714D01*
X138992857Y-57164285D01*
X139021428Y-57221428D01*
X139021428Y-57278571D01*
X138992857Y-57335714D01*
X138964285Y-57364285D01*
X138907142Y-57392857D01*
X138792857Y-57421428D01*
X138650000Y-57421428D01*
X138535714Y-57392857D01*
X138478571Y-57364285D01*
X138450000Y-57335714D01*
X138421428Y-57278571D01*
X138964285Y-56821428D02*
X138992857Y-56792857D01*
X139021428Y-56821428D01*
X138992857Y-56850000D01*
X138964285Y-56821428D01*
X139021428Y-56821428D01*
X139021428Y-56221428D02*
X139021428Y-56564285D01*
X139021428Y-56392857D02*
X138421428Y-56392857D01*
X138507142Y-56450000D01*
X138564285Y-56507142D01*
X138592857Y-56564285D01*
X138621428Y-55964285D02*
X139221428Y-55964285D01*
X138935714Y-55678571D02*
X138992857Y-55650000D01*
X139021428Y-55592857D01*
X138935714Y-55964285D02*
X138992857Y-55935714D01*
X139021428Y-55878571D01*
X139021428Y-55764285D01*
X138992857Y-55707142D01*
X138935714Y-55678571D01*
X138621428Y-55678571D01*
X138707142Y-55135714D02*
X138707142Y-55335714D01*
X139021428Y-55335714D02*
X138421428Y-55335714D01*
X138421428Y-55050000D01*
D10*
%TO.C,J2*%
X154032380Y-87603333D02*
X154746666Y-87603333D01*
X154889523Y-87650952D01*
X154984761Y-87746190D01*
X155032380Y-87889047D01*
X155032380Y-87984285D01*
X154127619Y-87174761D02*
X154080000Y-87127142D01*
X154032380Y-87031904D01*
X154032380Y-86793809D01*
X154080000Y-86698571D01*
X154127619Y-86650952D01*
X154222857Y-86603333D01*
X154318095Y-86603333D01*
X154460952Y-86650952D01*
X155032380Y-87222380D01*
X155032380Y-86603333D01*
D12*
%TO.C,U2*%
X116930000Y-52160000D02*
X116930000Y-57460000D01*
X134830000Y-53810000D02*
X134830000Y-52160000D01*
X116930000Y-57460000D02*
X134830000Y-57460000D01*
X134830000Y-52160000D02*
X116930000Y-52160000D01*
X134830000Y-57460000D02*
X134830000Y-55810000D01*
X134830000Y-53810000D02*
G75*
G03*
X134830000Y-55810000I0J-1000000D01*
G01*
%TO.C,U1*%
X152580000Y-78080000D02*
X152580000Y-72620000D01*
X152580000Y-70620000D02*
X152580000Y-65160000D01*
X152580000Y-65160000D02*
X116900000Y-65160000D01*
X116900000Y-78080000D02*
X152580000Y-78080000D01*
X116900000Y-65160000D02*
X116900000Y-78080000D01*
X152580000Y-70620000D02*
G75*
G03*
X152580000Y-72620000I0J-1000000D01*
G01*
%TO.C,C1*%
X137680000Y-58520000D02*
X137695000Y-58520000D01*
X137680000Y-53980000D02*
X137695000Y-53980000D01*
X139805000Y-58520000D02*
X139820000Y-58520000D01*
X139820000Y-58520000D02*
X139820000Y-53980000D01*
X139805000Y-53980000D02*
X139820000Y-53980000D01*
X137680000Y-58520000D02*
X137680000Y-53980000D01*
%TO.C,REF\u002A\u002A*%
G36*
X159387333Y-57133528D02*
G01*
X159443590Y-57159117D01*
X159487747Y-57190124D01*
X159520101Y-57224795D01*
X159542438Y-57269520D01*
X159556546Y-57330692D01*
X159564211Y-57414701D01*
X159567220Y-57527940D01*
X159567538Y-57602509D01*
X159567538Y-57893420D01*
X159517773Y-57916095D01*
X159478576Y-57932667D01*
X159459157Y-57938769D01*
X159455442Y-57920610D01*
X159452495Y-57871648D01*
X159450691Y-57800153D01*
X159450308Y-57743385D01*
X159448661Y-57661371D01*
X159444222Y-57596309D01*
X159437740Y-57556467D01*
X159432590Y-57548000D01*
X159397977Y-57556646D01*
X159343640Y-57578823D01*
X159280722Y-57608886D01*
X159220368Y-57641192D01*
X159173721Y-57670098D01*
X159151926Y-57689961D01*
X159151839Y-57690175D01*
X159153714Y-57726935D01*
X159170525Y-57762026D01*
X159200039Y-57790528D01*
X159243116Y-57800061D01*
X159279932Y-57798950D01*
X159332074Y-57798133D01*
X159359444Y-57810349D01*
X159375882Y-57842624D01*
X159377955Y-57848710D01*
X159385081Y-57894739D01*
X159366024Y-57922687D01*
X159316353Y-57936007D01*
X159262697Y-57938470D01*
X159166142Y-57920210D01*
X159116159Y-57894131D01*
X159054429Y-57832868D01*
X159021690Y-57757670D01*
X159018753Y-57678211D01*
X159046424Y-57604167D01*
X159088047Y-57557769D01*
X159129604Y-57531793D01*
X159194922Y-57498907D01*
X159271038Y-57465557D01*
X159283726Y-57460461D01*
X159367333Y-57423565D01*
X159415530Y-57391046D01*
X159431030Y-57358718D01*
X159416550Y-57322394D01*
X159391692Y-57294000D01*
X159332939Y-57259039D01*
X159268293Y-57256417D01*
X159209008Y-57283358D01*
X159166339Y-57337088D01*
X159160739Y-57350950D01*
X159128133Y-57401936D01*
X159080530Y-57439787D01*
X159020461Y-57470850D01*
X159020461Y-57382768D01*
X159023997Y-57328951D01*
X159039156Y-57286534D01*
X159072768Y-57241279D01*
X159105035Y-57206420D01*
X159155209Y-57157062D01*
X159194193Y-57130547D01*
X159236064Y-57119911D01*
X159283460Y-57118154D01*
X159387333Y-57133528D01*
G37*
D13*
X159387333Y-57133528D02*
X159443590Y-57159117D01*
X159487747Y-57190124D01*
X159520101Y-57224795D01*
X159542438Y-57269520D01*
X159556546Y-57330692D01*
X159564211Y-57414701D01*
X159567220Y-57527940D01*
X159567538Y-57602509D01*
X159567538Y-57893420D01*
X159517773Y-57916095D01*
X159478576Y-57932667D01*
X159459157Y-57938769D01*
X159455442Y-57920610D01*
X159452495Y-57871648D01*
X159450691Y-57800153D01*
X159450308Y-57743385D01*
X159448661Y-57661371D01*
X159444222Y-57596309D01*
X159437740Y-57556467D01*
X159432590Y-57548000D01*
X159397977Y-57556646D01*
X159343640Y-57578823D01*
X159280722Y-57608886D01*
X159220368Y-57641192D01*
X159173721Y-57670098D01*
X159151926Y-57689961D01*
X159151839Y-57690175D01*
X159153714Y-57726935D01*
X159170525Y-57762026D01*
X159200039Y-57790528D01*
X159243116Y-57800061D01*
X159279932Y-57798950D01*
X159332074Y-57798133D01*
X159359444Y-57810349D01*
X159375882Y-57842624D01*
X159377955Y-57848710D01*
X159385081Y-57894739D01*
X159366024Y-57922687D01*
X159316353Y-57936007D01*
X159262697Y-57938470D01*
X159166142Y-57920210D01*
X159116159Y-57894131D01*
X159054429Y-57832868D01*
X159021690Y-57757670D01*
X159018753Y-57678211D01*
X159046424Y-57604167D01*
X159088047Y-57557769D01*
X159129604Y-57531793D01*
X159194922Y-57498907D01*
X159271038Y-57465557D01*
X159283726Y-57460461D01*
X159367333Y-57423565D01*
X159415530Y-57391046D01*
X159431030Y-57358718D01*
X159416550Y-57322394D01*
X159391692Y-57294000D01*
X159332939Y-57259039D01*
X159268293Y-57256417D01*
X159209008Y-57283358D01*
X159166339Y-57337088D01*
X159160739Y-57350950D01*
X159128133Y-57401936D01*
X159080530Y-57439787D01*
X159020461Y-57470850D01*
X159020461Y-57382768D01*
X159023997Y-57328951D01*
X159039156Y-57286534D01*
X159072768Y-57241279D01*
X159105035Y-57206420D01*
X159155209Y-57157062D01*
X159194193Y-57130547D01*
X159236064Y-57119911D01*
X159283460Y-57118154D01*
X159387333Y-57133528D01*
G36*
X153634778Y-57241055D02*
G01*
X153680421Y-57175215D01*
X153762802Y-57108681D01*
X153853546Y-57075676D01*
X153946185Y-57073573D01*
X154034254Y-57099745D01*
X154111286Y-57151567D01*
X154170816Y-57226412D01*
X154206378Y-57321654D01*
X154213571Y-57391756D01*
X154212754Y-57421009D01*
X154205914Y-57443407D01*
X154187112Y-57463474D01*
X154150408Y-57485733D01*
X154089862Y-57514709D01*
X153999534Y-57554927D01*
X153999077Y-57555129D01*
X153915933Y-57593210D01*
X153847753Y-57627025D01*
X153801505Y-57652933D01*
X153784158Y-57667295D01*
X153784154Y-57667411D01*
X153799443Y-57698685D01*
X153835196Y-57733157D01*
X153876242Y-57757990D01*
X153897037Y-57762923D01*
X153953770Y-57745862D01*
X154002627Y-57703133D01*
X154026465Y-57656155D01*
X154049397Y-57621522D01*
X154094318Y-57582081D01*
X154147123Y-57548009D01*
X154193710Y-57529480D01*
X154203452Y-57528462D01*
X154214418Y-57545215D01*
X154215079Y-57588039D01*
X154207020Y-57645781D01*
X154191827Y-57707289D01*
X154171086Y-57761409D01*
X154170038Y-57763510D01*
X154107621Y-57850660D01*
X154026726Y-57909939D01*
X153934856Y-57939034D01*
X153839513Y-57935634D01*
X153748198Y-57897428D01*
X153744138Y-57894741D01*
X153672306Y-57829642D01*
X153625073Y-57744705D01*
X153598934Y-57633021D01*
X153595426Y-57601643D01*
X153589213Y-57453536D01*
X153596661Y-57384468D01*
X153784154Y-57384468D01*
X153786590Y-57427552D01*
X153799914Y-57440126D01*
X153833132Y-57430719D01*
X153885494Y-57408483D01*
X153944024Y-57380610D01*
X153945479Y-57379872D01*
X153995089Y-57353777D01*
X154015000Y-57336363D01*
X154010090Y-57318107D01*
X153989416Y-57294120D01*
X153936819Y-57259406D01*
X153880177Y-57256856D01*
X153829369Y-57282119D01*
X153794276Y-57330847D01*
X153784154Y-57384468D01*
X153596661Y-57384468D01*
X153601992Y-57335036D01*
X153634778Y-57241055D01*
G37*
X153634778Y-57241055D02*
X153680421Y-57175215D01*
X153762802Y-57108681D01*
X153853546Y-57075676D01*
X153946185Y-57073573D01*
X154034254Y-57099745D01*
X154111286Y-57151567D01*
X154170816Y-57226412D01*
X154206378Y-57321654D01*
X154213571Y-57391756D01*
X154212754Y-57421009D01*
X154205914Y-57443407D01*
X154187112Y-57463474D01*
X154150408Y-57485733D01*
X154089862Y-57514709D01*
X153999534Y-57554927D01*
X153999077Y-57555129D01*
X153915933Y-57593210D01*
X153847753Y-57627025D01*
X153801505Y-57652933D01*
X153784158Y-57667295D01*
X153784154Y-57667411D01*
X153799443Y-57698685D01*
X153835196Y-57733157D01*
X153876242Y-57757990D01*
X153897037Y-57762923D01*
X153953770Y-57745862D01*
X154002627Y-57703133D01*
X154026465Y-57656155D01*
X154049397Y-57621522D01*
X154094318Y-57582081D01*
X154147123Y-57548009D01*
X154193710Y-57529480D01*
X154203452Y-57528462D01*
X154214418Y-57545215D01*
X154215079Y-57588039D01*
X154207020Y-57645781D01*
X154191827Y-57707289D01*
X154171086Y-57761409D01*
X154170038Y-57763510D01*
X154107621Y-57850660D01*
X154026726Y-57909939D01*
X153934856Y-57939034D01*
X153839513Y-57935634D01*
X153748198Y-57897428D01*
X153744138Y-57894741D01*
X153672306Y-57829642D01*
X153625073Y-57744705D01*
X153598934Y-57633021D01*
X153595426Y-57601643D01*
X153589213Y-57453536D01*
X153596661Y-57384468D01*
X153784154Y-57384468D01*
X153786590Y-57427552D01*
X153799914Y-57440126D01*
X153833132Y-57430719D01*
X153885494Y-57408483D01*
X153944024Y-57380610D01*
X153945479Y-57379872D01*
X153995089Y-57353777D01*
X154015000Y-57336363D01*
X154010090Y-57318107D01*
X153989416Y-57294120D01*
X153936819Y-57259406D01*
X153880177Y-57256856D01*
X153829369Y-57282119D01*
X153794276Y-57330847D01*
X153784154Y-57384468D01*
X153596661Y-57384468D01*
X153601992Y-57335036D01*
X153634778Y-57241055D01*
G36*
X160361032Y-57320710D02*
G01*
X160379460Y-57255167D01*
X160409360Y-57206912D01*
X160453080Y-57168767D01*
X160472141Y-57156440D01*
X160558726Y-57124336D01*
X160653522Y-57122316D01*
X160745224Y-57147838D01*
X160822528Y-57198361D01*
X160859814Y-57243590D01*
X160889353Y-57325663D01*
X160891699Y-57390607D01*
X160886385Y-57477445D01*
X160686115Y-57565103D01*
X160588739Y-57609887D01*
X160525113Y-57645913D01*
X160492029Y-57677117D01*
X160486280Y-57707436D01*
X160504658Y-57740805D01*
X160524923Y-57762923D01*
X160583889Y-57798393D01*
X160648024Y-57800879D01*
X160706926Y-57773235D01*
X160750197Y-57718320D01*
X160757936Y-57698928D01*
X160795006Y-57638364D01*
X160837654Y-57612552D01*
X160896154Y-57590471D01*
X160896154Y-57674184D01*
X160890982Y-57731150D01*
X160870723Y-57779189D01*
X160828262Y-57834346D01*
X160821951Y-57841514D01*
X160774720Y-57890585D01*
X160734121Y-57916920D01*
X160683328Y-57929035D01*
X160641220Y-57933003D01*
X160565902Y-57933991D01*
X160512286Y-57921466D01*
X160478838Y-57902869D01*
X160426268Y-57861975D01*
X160389879Y-57817748D01*
X160366850Y-57762126D01*
X160354359Y-57687047D01*
X160349587Y-57584449D01*
X160349206Y-57532376D01*
X160350501Y-57469948D01*
X160468471Y-57469948D01*
X160469839Y-57503438D01*
X160473249Y-57508923D01*
X160495753Y-57501472D01*
X160544182Y-57481753D01*
X160608908Y-57453718D01*
X160622443Y-57447692D01*
X160704244Y-57406096D01*
X160749312Y-57369538D01*
X160759217Y-57335296D01*
X160735526Y-57300648D01*
X160715960Y-57285339D01*
X160645360Y-57254721D01*
X160579280Y-57259780D01*
X160523959Y-57297151D01*
X160485636Y-57363473D01*
X160473349Y-57416116D01*
X160468471Y-57469948D01*
X160350501Y-57469948D01*
X160351730Y-57410720D01*
X160361032Y-57320710D01*
G37*
X160361032Y-57320710D02*
X160379460Y-57255167D01*
X160409360Y-57206912D01*
X160453080Y-57168767D01*
X160472141Y-57156440D01*
X160558726Y-57124336D01*
X160653522Y-57122316D01*
X160745224Y-57147838D01*
X160822528Y-57198361D01*
X160859814Y-57243590D01*
X160889353Y-57325663D01*
X160891699Y-57390607D01*
X160886385Y-57477445D01*
X160686115Y-57565103D01*
X160588739Y-57609887D01*
X160525113Y-57645913D01*
X160492029Y-57677117D01*
X160486280Y-57707436D01*
X160504658Y-57740805D01*
X160524923Y-57762923D01*
X160583889Y-57798393D01*
X160648024Y-57800879D01*
X160706926Y-57773235D01*
X160750197Y-57718320D01*
X160757936Y-57698928D01*
X160795006Y-57638364D01*
X160837654Y-57612552D01*
X160896154Y-57590471D01*
X160896154Y-57674184D01*
X160890982Y-57731150D01*
X160870723Y-57779189D01*
X160828262Y-57834346D01*
X160821951Y-57841514D01*
X160774720Y-57890585D01*
X160734121Y-57916920D01*
X160683328Y-57929035D01*
X160641220Y-57933003D01*
X160565902Y-57933991D01*
X160512286Y-57921466D01*
X160478838Y-57902869D01*
X160426268Y-57861975D01*
X160389879Y-57817748D01*
X160366850Y-57762126D01*
X160354359Y-57687047D01*
X160349587Y-57584449D01*
X160349206Y-57532376D01*
X160350501Y-57469948D01*
X160468471Y-57469948D01*
X160469839Y-57503438D01*
X160473249Y-57508923D01*
X160495753Y-57501472D01*
X160544182Y-57481753D01*
X160608908Y-57453718D01*
X160622443Y-57447692D01*
X160704244Y-57406096D01*
X160749312Y-57369538D01*
X160759217Y-57335296D01*
X160735526Y-57300648D01*
X160715960Y-57285339D01*
X160645360Y-57254721D01*
X160579280Y-57259780D01*
X160523959Y-57297151D01*
X160485636Y-57363473D01*
X160473349Y-57416116D01*
X160468471Y-57469948D01*
X160350501Y-57469948D01*
X160351730Y-57410720D01*
X160361032Y-57320710D01*
G36*
X156639878Y-50787776D02*
G01*
X156745612Y-50788355D01*
X156822132Y-50789922D01*
X156874372Y-50792972D01*
X156907263Y-50797996D01*
X156925737Y-50805489D01*
X156934727Y-50815944D01*
X156939163Y-50829853D01*
X156939594Y-50831654D01*
X156946333Y-50864145D01*
X156958808Y-50928252D01*
X156975719Y-51017151D01*
X156995771Y-51124019D01*
X157017664Y-51242033D01*
X157018429Y-51246178D01*
X157040359Y-51361831D01*
X157060877Y-51464014D01*
X157078659Y-51546598D01*
X157092381Y-51603456D01*
X157100718Y-51628458D01*
X157101116Y-51628901D01*
X157125677Y-51641110D01*
X157176315Y-51661456D01*
X157242095Y-51685545D01*
X157242461Y-51685674D01*
X157325317Y-51716818D01*
X157423000Y-51756491D01*
X157515077Y-51796381D01*
X157519434Y-51798353D01*
X157669407Y-51866420D01*
X158001498Y-51639639D01*
X158103374Y-51570504D01*
X158195657Y-51508697D01*
X158273003Y-51457733D01*
X158330064Y-51421127D01*
X158361495Y-51402394D01*
X158364479Y-51401004D01*
X158387321Y-51407190D01*
X158429982Y-51437035D01*
X158494128Y-51491947D01*
X158581421Y-51573334D01*
X158670535Y-51659922D01*
X158756441Y-51745247D01*
X158833327Y-51823108D01*
X158896564Y-51888697D01*
X158941523Y-51937205D01*
X158963576Y-51963825D01*
X158964396Y-51965195D01*
X158966834Y-51983463D01*
X158957650Y-52013295D01*
X158934574Y-52058721D01*
X158895337Y-52123770D01*
X158837670Y-52212470D01*
X158760795Y-52326657D01*
X158692570Y-52427162D01*
X158631582Y-52517303D01*
X158581356Y-52591849D01*
X158545416Y-52645565D01*
X158527287Y-52673218D01*
X158526146Y-52675095D01*
X158528359Y-52701590D01*
X158545138Y-52753086D01*
X158573142Y-52819851D01*
X158583122Y-52841172D01*
X158626672Y-52936159D01*
X158673134Y-53043937D01*
X158710877Y-53137192D01*
X158738073Y-53206406D01*
X158759675Y-53259006D01*
X158772158Y-53286497D01*
X158773709Y-53288616D01*
X158796668Y-53292124D01*
X158850786Y-53301738D01*
X158928868Y-53316089D01*
X159023719Y-53333807D01*
X159128143Y-53353525D01*
X159234944Y-53373874D01*
X159336926Y-53393486D01*
X159426894Y-53410991D01*
X159497653Y-53425022D01*
X159542006Y-53434209D01*
X159552885Y-53436807D01*
X159564122Y-53443218D01*
X159572605Y-53457697D01*
X159578714Y-53485133D01*
X159582832Y-53530411D01*
X159585341Y-53598420D01*
X159586621Y-53694047D01*
X159587054Y-53822180D01*
X159587077Y-53874701D01*
X159587077Y-54301845D01*
X159484500Y-54322091D01*
X159427431Y-54333070D01*
X159342269Y-54349095D01*
X159239372Y-54368233D01*
X159129096Y-54388551D01*
X159098615Y-54394132D01*
X158996855Y-54413917D01*
X158908205Y-54433373D01*
X158840108Y-54450697D01*
X158800004Y-54464088D01*
X158793323Y-54468079D01*
X158776919Y-54496342D01*
X158753399Y-54551109D01*
X158727316Y-54621588D01*
X158722142Y-54636769D01*
X158687956Y-54730896D01*
X158645523Y-54837101D01*
X158603997Y-54932473D01*
X158603792Y-54932916D01*
X158534640Y-55082525D01*
X158989512Y-55751617D01*
X158697500Y-56044116D01*
X158609180Y-56131170D01*
X158528625Y-56207909D01*
X158460360Y-56270237D01*
X158408908Y-56314056D01*
X158378794Y-56335270D01*
X158374474Y-56336616D01*
X158349111Y-56326016D01*
X158297358Y-56296547D01*
X158224868Y-56251705D01*
X158137294Y-56194984D01*
X158042612Y-56131462D01*
X157946516Y-56066668D01*
X157860837Y-56010287D01*
X157791016Y-55965788D01*
X157742494Y-55936639D01*
X157720782Y-55926308D01*
X157694293Y-55935050D01*
X157644062Y-55958087D01*
X157580451Y-55990631D01*
X157573708Y-55994249D01*
X157488046Y-56037210D01*
X157429306Y-56058279D01*
X157392772Y-56058503D01*
X157373731Y-56038928D01*
X157373620Y-56038654D01*
X157364102Y-56015472D01*
X157341403Y-55960441D01*
X157307282Y-55877822D01*
X157263500Y-55771872D01*
X157211816Y-55646852D01*
X157153992Y-55507020D01*
X157097991Y-55371637D01*
X157036447Y-55222234D01*
X156979939Y-55083832D01*
X156930161Y-54960673D01*
X156888806Y-54857002D01*
X156857568Y-54777059D01*
X156838141Y-54725088D01*
X156832154Y-54705692D01*
X156847168Y-54683443D01*
X156886439Y-54647982D01*
X156938807Y-54608887D01*
X157087941Y-54485245D01*
X157204511Y-54343522D01*
X157287118Y-54186704D01*
X157334366Y-54017775D01*
X157344857Y-53839722D01*
X157337231Y-53757539D01*
X157295682Y-53587031D01*
X157224123Y-53436459D01*
X157126995Y-53307309D01*
X157008734Y-53201064D01*
X156873780Y-53119210D01*
X156726571Y-53063232D01*
X156571544Y-53034615D01*
X156413139Y-53034844D01*
X156255794Y-53065405D01*
X156103946Y-53127782D01*
X155962035Y-53223460D01*
X155902803Y-53277572D01*
X155789203Y-53416520D01*
X155710106Y-53568361D01*
X155664986Y-53728667D01*
X155653316Y-53893012D01*
X155674569Y-54056971D01*
X155728220Y-54216118D01*
X155813740Y-54366025D01*
X155930605Y-54502267D01*
X156061193Y-54608887D01*
X156115588Y-54649642D01*
X156154014Y-54684718D01*
X156167846Y-54705726D01*
X156160603Y-54728635D01*
X156140005Y-54783365D01*
X156107746Y-54865672D01*
X156065521Y-54971315D01*
X156015023Y-55096050D01*
X155957948Y-55235636D01*
X155901854Y-55371670D01*
X155839967Y-55521201D01*
X155782644Y-55659767D01*
X155731644Y-55783107D01*
X155688727Y-55886964D01*
X155655653Y-55967080D01*
X155634181Y-56019195D01*
X155626225Y-56038654D01*
X155607429Y-56058423D01*
X155571074Y-56058365D01*
X155512479Y-56037441D01*
X155426968Y-55994613D01*
X155426292Y-55994249D01*
X155361907Y-55961012D01*
X155309861Y-55936802D01*
X155280512Y-55926404D01*
X155279217Y-55926308D01*
X155257124Y-55936855D01*
X155208348Y-55966184D01*
X155138331Y-56010827D01*
X155052514Y-56067314D01*
X154957388Y-56131462D01*
X154860540Y-56196411D01*
X154773253Y-56252896D01*
X154701181Y-56297421D01*
X154649977Y-56326490D01*
X154625526Y-56336616D01*
X154603010Y-56323307D01*
X154557742Y-56286112D01*
X154494244Y-56229128D01*
X154417039Y-56156449D01*
X154330651Y-56072171D01*
X154302399Y-56044016D01*
X154010287Y-55751416D01*
X154232631Y-55425104D01*
X154300202Y-55324897D01*
X154359507Y-55234963D01*
X154407217Y-55160510D01*
X154440007Y-55106751D01*
X154454548Y-55078894D01*
X154454974Y-55076912D01*
X154447308Y-55050655D01*
X154426689Y-54997837D01*
X154396685Y-54927310D01*
X154375625Y-54880093D01*
X154336248Y-54789694D01*
X154299165Y-54698366D01*
X154270415Y-54621200D01*
X154262605Y-54597692D01*
X154240417Y-54534916D01*
X154218727Y-54486411D01*
X154206813Y-54468079D01*
X154180523Y-54456859D01*
X154123142Y-54440954D01*
X154042118Y-54422167D01*
X153944895Y-54402299D01*
X153901385Y-54394132D01*
X153790896Y-54373829D01*
X153684916Y-54354170D01*
X153593801Y-54337088D01*
X153527908Y-54324518D01*
X153515500Y-54322091D01*
X153412923Y-54301845D01*
X153412923Y-53874701D01*
X153413153Y-53734246D01*
X153414099Y-53627979D01*
X153416141Y-53551013D01*
X153419662Y-53498460D01*
X153425043Y-53465433D01*
X153432666Y-53447045D01*
X153442912Y-53438408D01*
X153447115Y-53436807D01*
X153472470Y-53431127D01*
X153528484Y-53419795D01*
X153607964Y-53404179D01*
X153703712Y-53385647D01*
X153808533Y-53365569D01*
X153915232Y-53345312D01*
X154016613Y-53326246D01*
X154105479Y-53309739D01*
X154174637Y-53297159D01*
X154216889Y-53289875D01*
X154226290Y-53288616D01*
X154234807Y-53271763D01*
X154253660Y-53226870D01*
X154279324Y-53162430D01*
X154289123Y-53137192D01*
X154328648Y-53039686D01*
X154375192Y-52931959D01*
X154416877Y-52841172D01*
X154447550Y-52771753D01*
X154467956Y-52714710D01*
X154474768Y-52679777D01*
X154473682Y-52675095D01*
X154459285Y-52652991D01*
X154426412Y-52603831D01*
X154378590Y-52532848D01*
X154319348Y-52445278D01*
X154252215Y-52346357D01*
X154238941Y-52326830D01*
X154161046Y-52211140D01*
X154103787Y-52123044D01*
X154064881Y-52058486D01*
X154042044Y-52013411D01*
X154032994Y-51983763D01*
X154035448Y-51965485D01*
X154035511Y-51965369D01*
X154054827Y-51941361D01*
X154097551Y-51894947D01*
X154159051Y-51830937D01*
X154234698Y-51754145D01*
X154319861Y-51669382D01*
X154329465Y-51659922D01*
X154436790Y-51555989D01*
X154519615Y-51479675D01*
X154579605Y-51429571D01*
X154618423Y-51404270D01*
X154635520Y-51401004D01*
X154660473Y-51415250D01*
X154712255Y-51448156D01*
X154785520Y-51496208D01*
X154874920Y-51555890D01*
X154975111Y-51623688D01*
X154998501Y-51639639D01*
X155330593Y-51866420D01*
X155480565Y-51798353D01*
X155571770Y-51758685D01*
X155669669Y-51718791D01*
X155753831Y-51686983D01*
X155757538Y-51685674D01*
X155823369Y-51661576D01*
X155874116Y-51641200D01*
X155898842Y-51628936D01*
X155898884Y-51628901D01*
X155906729Y-51606734D01*
X155920066Y-51552217D01*
X155937570Y-51471480D01*
X155957917Y-51370650D01*
X155979782Y-51255856D01*
X155981571Y-51246178D01*
X156003504Y-51127904D01*
X156023640Y-51020542D01*
X156040680Y-50930917D01*
X156053328Y-50865851D01*
X156060284Y-50832168D01*
X156060406Y-50831654D01*
X156064639Y-50817325D01*
X156072871Y-50806507D01*
X156090033Y-50798706D01*
X156121058Y-50793429D01*
X156170878Y-50790182D01*
X156244424Y-50788472D01*
X156346629Y-50787807D01*
X156482425Y-50787693D01*
X156500000Y-50787692D01*
X156639878Y-50787776D01*
G37*
X156639878Y-50787776D02*
X156745612Y-50788355D01*
X156822132Y-50789922D01*
X156874372Y-50792972D01*
X156907263Y-50797996D01*
X156925737Y-50805489D01*
X156934727Y-50815944D01*
X156939163Y-50829853D01*
X156939594Y-50831654D01*
X156946333Y-50864145D01*
X156958808Y-50928252D01*
X156975719Y-51017151D01*
X156995771Y-51124019D01*
X157017664Y-51242033D01*
X157018429Y-51246178D01*
X157040359Y-51361831D01*
X157060877Y-51464014D01*
X157078659Y-51546598D01*
X157092381Y-51603456D01*
X157100718Y-51628458D01*
X157101116Y-51628901D01*
X157125677Y-51641110D01*
X157176315Y-51661456D01*
X157242095Y-51685545D01*
X157242461Y-51685674D01*
X157325317Y-51716818D01*
X157423000Y-51756491D01*
X157515077Y-51796381D01*
X157519434Y-51798353D01*
X157669407Y-51866420D01*
X158001498Y-51639639D01*
X158103374Y-51570504D01*
X158195657Y-51508697D01*
X158273003Y-51457733D01*
X158330064Y-51421127D01*
X158361495Y-51402394D01*
X158364479Y-51401004D01*
X158387321Y-51407190D01*
X158429982Y-51437035D01*
X158494128Y-51491947D01*
X158581421Y-51573334D01*
X158670535Y-51659922D01*
X158756441Y-51745247D01*
X158833327Y-51823108D01*
X158896564Y-51888697D01*
X158941523Y-51937205D01*
X158963576Y-51963825D01*
X158964396Y-51965195D01*
X158966834Y-51983463D01*
X158957650Y-52013295D01*
X158934574Y-52058721D01*
X158895337Y-52123770D01*
X158837670Y-52212470D01*
X158760795Y-52326657D01*
X158692570Y-52427162D01*
X158631582Y-52517303D01*
X158581356Y-52591849D01*
X158545416Y-52645565D01*
X158527287Y-52673218D01*
X158526146Y-52675095D01*
X158528359Y-52701590D01*
X158545138Y-52753086D01*
X158573142Y-52819851D01*
X158583122Y-52841172D01*
X158626672Y-52936159D01*
X158673134Y-53043937D01*
X158710877Y-53137192D01*
X158738073Y-53206406D01*
X158759675Y-53259006D01*
X158772158Y-53286497D01*
X158773709Y-53288616D01*
X158796668Y-53292124D01*
X158850786Y-53301738D01*
X158928868Y-53316089D01*
X159023719Y-53333807D01*
X159128143Y-53353525D01*
X159234944Y-53373874D01*
X159336926Y-53393486D01*
X159426894Y-53410991D01*
X159497653Y-53425022D01*
X159542006Y-53434209D01*
X159552885Y-53436807D01*
X159564122Y-53443218D01*
X159572605Y-53457697D01*
X159578714Y-53485133D01*
X159582832Y-53530411D01*
X159585341Y-53598420D01*
X159586621Y-53694047D01*
X159587054Y-53822180D01*
X159587077Y-53874701D01*
X159587077Y-54301845D01*
X159484500Y-54322091D01*
X159427431Y-54333070D01*
X159342269Y-54349095D01*
X159239372Y-54368233D01*
X159129096Y-54388551D01*
X159098615Y-54394132D01*
X158996855Y-54413917D01*
X158908205Y-54433373D01*
X158840108Y-54450697D01*
X158800004Y-54464088D01*
X158793323Y-54468079D01*
X158776919Y-54496342D01*
X158753399Y-54551109D01*
X158727316Y-54621588D01*
X158722142Y-54636769D01*
X158687956Y-54730896D01*
X158645523Y-54837101D01*
X158603997Y-54932473D01*
X158603792Y-54932916D01*
X158534640Y-55082525D01*
X158989512Y-55751617D01*
X158697500Y-56044116D01*
X158609180Y-56131170D01*
X158528625Y-56207909D01*
X158460360Y-56270237D01*
X158408908Y-56314056D01*
X158378794Y-56335270D01*
X158374474Y-56336616D01*
X158349111Y-56326016D01*
X158297358Y-56296547D01*
X158224868Y-56251705D01*
X158137294Y-56194984D01*
X158042612Y-56131462D01*
X157946516Y-56066668D01*
X157860837Y-56010287D01*
X157791016Y-55965788D01*
X157742494Y-55936639D01*
X157720782Y-55926308D01*
X157694293Y-55935050D01*
X157644062Y-55958087D01*
X157580451Y-55990631D01*
X157573708Y-55994249D01*
X157488046Y-56037210D01*
X157429306Y-56058279D01*
X157392772Y-56058503D01*
X157373731Y-56038928D01*
X157373620Y-56038654D01*
X157364102Y-56015472D01*
X157341403Y-55960441D01*
X157307282Y-55877822D01*
X157263500Y-55771872D01*
X157211816Y-55646852D01*
X157153992Y-55507020D01*
X157097991Y-55371637D01*
X157036447Y-55222234D01*
X156979939Y-55083832D01*
X156930161Y-54960673D01*
X156888806Y-54857002D01*
X156857568Y-54777059D01*
X156838141Y-54725088D01*
X156832154Y-54705692D01*
X156847168Y-54683443D01*
X156886439Y-54647982D01*
X156938807Y-54608887D01*
X157087941Y-54485245D01*
X157204511Y-54343522D01*
X157287118Y-54186704D01*
X157334366Y-54017775D01*
X157344857Y-53839722D01*
X157337231Y-53757539D01*
X157295682Y-53587031D01*
X157224123Y-53436459D01*
X157126995Y-53307309D01*
X157008734Y-53201064D01*
X156873780Y-53119210D01*
X156726571Y-53063232D01*
X156571544Y-53034615D01*
X156413139Y-53034844D01*
X156255794Y-53065405D01*
X156103946Y-53127782D01*
X155962035Y-53223460D01*
X155902803Y-53277572D01*
X155789203Y-53416520D01*
X155710106Y-53568361D01*
X155664986Y-53728667D01*
X155653316Y-53893012D01*
X155674569Y-54056971D01*
X155728220Y-54216118D01*
X155813740Y-54366025D01*
X155930605Y-54502267D01*
X156061193Y-54608887D01*
X156115588Y-54649642D01*
X156154014Y-54684718D01*
X156167846Y-54705726D01*
X156160603Y-54728635D01*
X156140005Y-54783365D01*
X156107746Y-54865672D01*
X156065521Y-54971315D01*
X156015023Y-55096050D01*
X155957948Y-55235636D01*
X155901854Y-55371670D01*
X155839967Y-55521201D01*
X155782644Y-55659767D01*
X155731644Y-55783107D01*
X155688727Y-55886964D01*
X155655653Y-55967080D01*
X155634181Y-56019195D01*
X155626225Y-56038654D01*
X155607429Y-56058423D01*
X155571074Y-56058365D01*
X155512479Y-56037441D01*
X155426968Y-55994613D01*
X155426292Y-55994249D01*
X155361907Y-55961012D01*
X155309861Y-55936802D01*
X155280512Y-55926404D01*
X155279217Y-55926308D01*
X155257124Y-55936855D01*
X155208348Y-55966184D01*
X155138331Y-56010827D01*
X155052514Y-56067314D01*
X154957388Y-56131462D01*
X154860540Y-56196411D01*
X154773253Y-56252896D01*
X154701181Y-56297421D01*
X154649977Y-56326490D01*
X154625526Y-56336616D01*
X154603010Y-56323307D01*
X154557742Y-56286112D01*
X154494244Y-56229128D01*
X154417039Y-56156449D01*
X154330651Y-56072171D01*
X154302399Y-56044016D01*
X154010287Y-55751416D01*
X154232631Y-55425104D01*
X154300202Y-55324897D01*
X154359507Y-55234963D01*
X154407217Y-55160510D01*
X154440007Y-55106751D01*
X154454548Y-55078894D01*
X154454974Y-55076912D01*
X154447308Y-55050655D01*
X154426689Y-54997837D01*
X154396685Y-54927310D01*
X154375625Y-54880093D01*
X154336248Y-54789694D01*
X154299165Y-54698366D01*
X154270415Y-54621200D01*
X154262605Y-54597692D01*
X154240417Y-54534916D01*
X154218727Y-54486411D01*
X154206813Y-54468079D01*
X154180523Y-54456859D01*
X154123142Y-54440954D01*
X154042118Y-54422167D01*
X153944895Y-54402299D01*
X153901385Y-54394132D01*
X153790896Y-54373829D01*
X153684916Y-54354170D01*
X153593801Y-54337088D01*
X153527908Y-54324518D01*
X153515500Y-54322091D01*
X153412923Y-54301845D01*
X153412923Y-53874701D01*
X153413153Y-53734246D01*
X153414099Y-53627979D01*
X153416141Y-53551013D01*
X153419662Y-53498460D01*
X153425043Y-53465433D01*
X153432666Y-53447045D01*
X153442912Y-53438408D01*
X153447115Y-53436807D01*
X153472470Y-53431127D01*
X153528484Y-53419795D01*
X153607964Y-53404179D01*
X153703712Y-53385647D01*
X153808533Y-53365569D01*
X153915232Y-53345312D01*
X154016613Y-53326246D01*
X154105479Y-53309739D01*
X154174637Y-53297159D01*
X154216889Y-53289875D01*
X154226290Y-53288616D01*
X154234807Y-53271763D01*
X154253660Y-53226870D01*
X154279324Y-53162430D01*
X154289123Y-53137192D01*
X154328648Y-53039686D01*
X154375192Y-52931959D01*
X154416877Y-52841172D01*
X154447550Y-52771753D01*
X154467956Y-52714710D01*
X154474768Y-52679777D01*
X154473682Y-52675095D01*
X154459285Y-52652991D01*
X154426412Y-52603831D01*
X154378590Y-52532848D01*
X154319348Y-52445278D01*
X154252215Y-52346357D01*
X154238941Y-52326830D01*
X154161046Y-52211140D01*
X154103787Y-52123044D01*
X154064881Y-52058486D01*
X154042044Y-52013411D01*
X154032994Y-51983763D01*
X154035448Y-51965485D01*
X154035511Y-51965369D01*
X154054827Y-51941361D01*
X154097551Y-51894947D01*
X154159051Y-51830937D01*
X154234698Y-51754145D01*
X154319861Y-51669382D01*
X154329465Y-51659922D01*
X154436790Y-51555989D01*
X154519615Y-51479675D01*
X154579605Y-51429571D01*
X154618423Y-51404270D01*
X154635520Y-51401004D01*
X154660473Y-51415250D01*
X154712255Y-51448156D01*
X154785520Y-51496208D01*
X154874920Y-51555890D01*
X154975111Y-51623688D01*
X154998501Y-51639639D01*
X155330593Y-51866420D01*
X155480565Y-51798353D01*
X155571770Y-51758685D01*
X155669669Y-51718791D01*
X155753831Y-51686983D01*
X155757538Y-51685674D01*
X155823369Y-51661576D01*
X155874116Y-51641200D01*
X155898842Y-51628936D01*
X155898884Y-51628901D01*
X155906729Y-51606734D01*
X155920066Y-51552217D01*
X155937570Y-51471480D01*
X155957917Y-51370650D01*
X155979782Y-51255856D01*
X155981571Y-51246178D01*
X156003504Y-51127904D01*
X156023640Y-51020542D01*
X156040680Y-50930917D01*
X156053328Y-50865851D01*
X156060284Y-50832168D01*
X156060406Y-50831654D01*
X156064639Y-50817325D01*
X156072871Y-50806507D01*
X156090033Y-50798706D01*
X156121058Y-50793429D01*
X156170878Y-50790182D01*
X156244424Y-50788472D01*
X156346629Y-50787807D01*
X156482425Y-50787693D01*
X156500000Y-50787692D01*
X156639878Y-50787776D01*
G36*
X160070807Y-57136782D02*
G01*
X160094161Y-57146988D01*
X160149902Y-57191134D01*
X160197569Y-57254967D01*
X160227048Y-57323087D01*
X160231846Y-57356670D01*
X160215760Y-57403556D01*
X160180475Y-57428365D01*
X160142644Y-57443387D01*
X160125321Y-57446155D01*
X160116886Y-57426066D01*
X160100230Y-57382351D01*
X160092923Y-57362598D01*
X160051948Y-57294271D01*
X159992622Y-57260191D01*
X159916552Y-57261239D01*
X159910918Y-57262581D01*
X159870305Y-57281836D01*
X159840448Y-57319375D01*
X159820055Y-57379809D01*
X159807836Y-57467751D01*
X159802500Y-57587813D01*
X159802000Y-57651698D01*
X159801752Y-57752403D01*
X159800126Y-57821054D01*
X159795801Y-57864673D01*
X159787454Y-57890282D01*
X159773765Y-57904903D01*
X159753411Y-57915558D01*
X159752234Y-57916095D01*
X159713038Y-57932667D01*
X159693619Y-57938769D01*
X159690635Y-57920319D01*
X159688081Y-57869323D01*
X159686140Y-57792308D01*
X159684997Y-57695805D01*
X159684769Y-57625184D01*
X159685932Y-57488525D01*
X159690479Y-57384851D01*
X159699999Y-57308108D01*
X159716081Y-57252246D01*
X159740313Y-57211212D01*
X159774286Y-57178954D01*
X159807833Y-57156440D01*
X159888499Y-57126476D01*
X159982381Y-57119718D01*
X160070807Y-57136782D01*
G37*
X160070807Y-57136782D02*
X160094161Y-57146988D01*
X160149902Y-57191134D01*
X160197569Y-57254967D01*
X160227048Y-57323087D01*
X160231846Y-57356670D01*
X160215760Y-57403556D01*
X160180475Y-57428365D01*
X160142644Y-57443387D01*
X160125321Y-57446155D01*
X160116886Y-57426066D01*
X160100230Y-57382351D01*
X160092923Y-57362598D01*
X160051948Y-57294271D01*
X159992622Y-57260191D01*
X159916552Y-57261239D01*
X159910918Y-57262581D01*
X159870305Y-57281836D01*
X159840448Y-57319375D01*
X159820055Y-57379809D01*
X159807836Y-57467751D01*
X159802500Y-57587813D01*
X159802000Y-57651698D01*
X159801752Y-57752403D01*
X159800126Y-57821054D01*
X159795801Y-57864673D01*
X159787454Y-57890282D01*
X159773765Y-57904903D01*
X159753411Y-57915558D01*
X159752234Y-57916095D01*
X159713038Y-57932667D01*
X159693619Y-57938769D01*
X159690635Y-57920319D01*
X159688081Y-57869323D01*
X159686140Y-57792308D01*
X159684997Y-57695805D01*
X159684769Y-57625184D01*
X159685932Y-57488525D01*
X159690479Y-57384851D01*
X159699999Y-57308108D01*
X159716081Y-57252246D01*
X159740313Y-57211212D01*
X159774286Y-57178954D01*
X159807833Y-57156440D01*
X159888499Y-57126476D01*
X159982381Y-57119718D01*
X160070807Y-57136782D01*
G36*
X158895929Y-57136662D02*
G01*
X158898911Y-57188068D01*
X158901247Y-57266192D01*
X158902749Y-57364857D01*
X158903231Y-57468343D01*
X158903231Y-57818533D01*
X158841401Y-57880363D01*
X158798793Y-57918462D01*
X158761390Y-57933895D01*
X158710270Y-57932918D01*
X158689978Y-57930433D01*
X158626554Y-57923200D01*
X158574095Y-57919055D01*
X158561308Y-57918672D01*
X158518199Y-57921176D01*
X158456544Y-57927462D01*
X158432638Y-57930433D01*
X158373922Y-57935028D01*
X158334464Y-57925046D01*
X158295338Y-57894228D01*
X158281215Y-57880363D01*
X158219385Y-57818533D01*
X158219385Y-57163503D01*
X158269150Y-57140829D01*
X158312002Y-57124034D01*
X158337073Y-57118154D01*
X158343501Y-57136736D01*
X158349509Y-57188655D01*
X158354697Y-57268172D01*
X158358664Y-57369546D01*
X158360577Y-57455192D01*
X158365923Y-57792231D01*
X158412560Y-57798825D01*
X158454976Y-57794214D01*
X158475760Y-57779287D01*
X158481570Y-57751377D01*
X158486530Y-57691925D01*
X158490246Y-57608466D01*
X158492324Y-57508532D01*
X158492624Y-57457104D01*
X158492923Y-57161054D01*
X158554454Y-57139604D01*
X158598004Y-57125020D01*
X158621694Y-57118219D01*
X158622377Y-57118154D01*
X158624754Y-57136642D01*
X158627366Y-57187906D01*
X158629995Y-57265649D01*
X158632421Y-57363574D01*
X158634115Y-57455192D01*
X158639461Y-57792231D01*
X158756692Y-57792231D01*
X158762072Y-57484746D01*
X158767451Y-57177261D01*
X158824601Y-57147707D01*
X158866797Y-57127413D01*
X158891770Y-57118204D01*
X158892491Y-57118154D01*
X158895929Y-57136662D01*
G37*
X158895929Y-57136662D02*
X158898911Y-57188068D01*
X158901247Y-57266192D01*
X158902749Y-57364857D01*
X158903231Y-57468343D01*
X158903231Y-57818533D01*
X158841401Y-57880363D01*
X158798793Y-57918462D01*
X158761390Y-57933895D01*
X158710270Y-57932918D01*
X158689978Y-57930433D01*
X158626554Y-57923200D01*
X158574095Y-57919055D01*
X158561308Y-57918672D01*
X158518199Y-57921176D01*
X158456544Y-57927462D01*
X158432638Y-57930433D01*
X158373922Y-57935028D01*
X158334464Y-57925046D01*
X158295338Y-57894228D01*
X158281215Y-57880363D01*
X158219385Y-57818533D01*
X158219385Y-57163503D01*
X158269150Y-57140829D01*
X158312002Y-57124034D01*
X158337073Y-57118154D01*
X158343501Y-57136736D01*
X158349509Y-57188655D01*
X158354697Y-57268172D01*
X158358664Y-57369546D01*
X158360577Y-57455192D01*
X158365923Y-57792231D01*
X158412560Y-57798825D01*
X158454976Y-57794214D01*
X158475760Y-57779287D01*
X158481570Y-57751377D01*
X158486530Y-57691925D01*
X158490246Y-57608466D01*
X158492324Y-57508532D01*
X158492624Y-57457104D01*
X158492923Y-57161054D01*
X158554454Y-57139604D01*
X158598004Y-57125020D01*
X158621694Y-57118219D01*
X158622377Y-57118154D01*
X158624754Y-57136642D01*
X158627366Y-57187906D01*
X158629995Y-57265649D01*
X158632421Y-57363574D01*
X158634115Y-57455192D01*
X158639461Y-57792231D01*
X158756692Y-57792231D01*
X158762072Y-57484746D01*
X158767451Y-57177261D01*
X158824601Y-57147707D01*
X158866797Y-57127413D01*
X158891770Y-57118204D01*
X158892491Y-57118154D01*
X158895929Y-57136662D01*
G36*
X152856873Y-57394679D02*
G01*
X152860606Y-57330905D01*
X152865907Y-57285582D01*
X152873258Y-57253555D01*
X152883143Y-57229668D01*
X152896046Y-57208764D01*
X152901579Y-57200898D01*
X152974969Y-57126595D01*
X153067760Y-57084467D01*
X153175096Y-57072722D01*
X153268886Y-57084505D01*
X153343539Y-57121727D01*
X153409431Y-57190261D01*
X153427577Y-57215648D01*
X153447345Y-57248866D01*
X153460172Y-57284945D01*
X153467510Y-57333098D01*
X153470813Y-57402536D01*
X153471538Y-57494206D01*
X153468263Y-57619830D01*
X153456877Y-57714154D01*
X153435041Y-57784523D01*
X153400419Y-57838286D01*
X153350670Y-57882788D01*
X153347014Y-57885423D01*
X153297985Y-57912377D01*
X153238945Y-57925712D01*
X153163859Y-57929000D01*
X153041795Y-57929000D01*
X153041744Y-58047497D01*
X153040608Y-58113492D01*
X153033686Y-58152202D01*
X153015598Y-58175419D01*
X152980962Y-58194933D01*
X152972645Y-58198920D01*
X152933720Y-58217603D01*
X152903583Y-58229403D01*
X152881174Y-58230422D01*
X152865433Y-58216761D01*
X152855302Y-58184522D01*
X152849723Y-58129804D01*
X152847635Y-58048711D01*
X152847981Y-57937344D01*
X152849700Y-57791802D01*
X152850237Y-57748269D01*
X152852172Y-57598205D01*
X152853904Y-57500042D01*
X153041692Y-57500042D01*
X153042748Y-57583364D01*
X153047438Y-57637880D01*
X153058051Y-57673837D01*
X153076872Y-57701482D01*
X153089650Y-57714965D01*
X153141890Y-57754417D01*
X153188142Y-57757628D01*
X153235867Y-57725049D01*
X153237077Y-57723846D01*
X153256494Y-57698668D01*
X153268307Y-57664447D01*
X153274265Y-57611748D01*
X153276120Y-57531131D01*
X153276154Y-57513271D01*
X153271670Y-57402175D01*
X153257074Y-57325161D01*
X153230650Y-57278147D01*
X153190683Y-57257050D01*
X153167584Y-57254923D01*
X153112762Y-57264900D01*
X153075158Y-57297752D01*
X153052523Y-57357857D01*
X153042606Y-57449598D01*
X153041692Y-57500042D01*
X152853904Y-57500042D01*
X152854222Y-57482060D01*
X152856873Y-57394679D01*
G37*
X152856873Y-57394679D02*
X152860606Y-57330905D01*
X152865907Y-57285582D01*
X152873258Y-57253555D01*
X152883143Y-57229668D01*
X152896046Y-57208764D01*
X152901579Y-57200898D01*
X152974969Y-57126595D01*
X153067760Y-57084467D01*
X153175096Y-57072722D01*
X153268886Y-57084505D01*
X153343539Y-57121727D01*
X153409431Y-57190261D01*
X153427577Y-57215648D01*
X153447345Y-57248866D01*
X153460172Y-57284945D01*
X153467510Y-57333098D01*
X153470813Y-57402536D01*
X153471538Y-57494206D01*
X153468263Y-57619830D01*
X153456877Y-57714154D01*
X153435041Y-57784523D01*
X153400419Y-57838286D01*
X153350670Y-57882788D01*
X153347014Y-57885423D01*
X153297985Y-57912377D01*
X153238945Y-57925712D01*
X153163859Y-57929000D01*
X153041795Y-57929000D01*
X153041744Y-58047497D01*
X153040608Y-58113492D01*
X153033686Y-58152202D01*
X153015598Y-58175419D01*
X152980962Y-58194933D01*
X152972645Y-58198920D01*
X152933720Y-58217603D01*
X152903583Y-58229403D01*
X152881174Y-58230422D01*
X152865433Y-58216761D01*
X152855302Y-58184522D01*
X152849723Y-58129804D01*
X152847635Y-58048711D01*
X152847981Y-57937344D01*
X152849700Y-57791802D01*
X152850237Y-57748269D01*
X152852172Y-57598205D01*
X152853904Y-57500042D01*
X153041692Y-57500042D01*
X153042748Y-57583364D01*
X153047438Y-57637880D01*
X153058051Y-57673837D01*
X153076872Y-57701482D01*
X153089650Y-57714965D01*
X153141890Y-57754417D01*
X153188142Y-57757628D01*
X153235867Y-57725049D01*
X153237077Y-57723846D01*
X153256494Y-57698668D01*
X153268307Y-57664447D01*
X153274265Y-57611748D01*
X153276120Y-57531131D01*
X153276154Y-57513271D01*
X153271670Y-57402175D01*
X153257074Y-57325161D01*
X153230650Y-57278147D01*
X153190683Y-57257050D01*
X153167584Y-57254923D01*
X153112762Y-57264900D01*
X153075158Y-57297752D01*
X153052523Y-57357857D01*
X153042606Y-57449598D01*
X153041692Y-57500042D01*
X152853904Y-57500042D01*
X152854222Y-57482060D01*
X152856873Y-57394679D01*
G36*
X152107629Y-57337906D02*
G01*
X152114322Y-57289163D01*
X152125960Y-57253288D01*
X152143853Y-57221548D01*
X152147808Y-57215648D01*
X152214267Y-57136104D01*
X152286685Y-57089929D01*
X152374849Y-57071599D01*
X152404787Y-57070703D01*
X152516886Y-57087256D01*
X152608464Y-57135409D01*
X152676049Y-57212905D01*
X152700057Y-57262727D01*
X152718738Y-57337533D01*
X152728301Y-57432052D01*
X152729208Y-57535210D01*
X152721921Y-57635935D01*
X152706903Y-57723153D01*
X152684615Y-57785791D01*
X152677765Y-57796579D01*
X152596632Y-57877105D01*
X152500266Y-57925336D01*
X152395701Y-57939450D01*
X152289968Y-57917629D01*
X152260543Y-57904547D01*
X152203241Y-57864231D01*
X152152950Y-57810775D01*
X152148197Y-57803995D01*
X152128878Y-57771321D01*
X152116108Y-57736394D01*
X152108564Y-57690414D01*
X152104924Y-57624584D01*
X152103865Y-57530105D01*
X152103846Y-57508923D01*
X152103894Y-57502182D01*
X152299231Y-57502182D01*
X152300368Y-57591349D01*
X152304841Y-57650520D01*
X152314246Y-57688741D01*
X152330176Y-57715053D01*
X152338308Y-57723846D01*
X152385058Y-57757261D01*
X152430447Y-57755737D01*
X152476340Y-57726752D01*
X152503712Y-57695809D01*
X152519923Y-57650643D01*
X152529026Y-57579420D01*
X152529651Y-57571114D01*
X152531204Y-57442037D01*
X152514965Y-57346172D01*
X152481152Y-57284107D01*
X152429984Y-57256432D01*
X152411720Y-57254923D01*
X152363760Y-57262513D01*
X152330953Y-57288808D01*
X152310895Y-57339095D01*
X152301178Y-57418664D01*
X152299231Y-57502182D01*
X152103894Y-57502182D01*
X152104574Y-57408249D01*
X152107629Y-57337906D01*
G37*
X152107629Y-57337906D02*
X152114322Y-57289163D01*
X152125960Y-57253288D01*
X152143853Y-57221548D01*
X152147808Y-57215648D01*
X152214267Y-57136104D01*
X152286685Y-57089929D01*
X152374849Y-57071599D01*
X152404787Y-57070703D01*
X152516886Y-57087256D01*
X152608464Y-57135409D01*
X152676049Y-57212905D01*
X152700057Y-57262727D01*
X152718738Y-57337533D01*
X152728301Y-57432052D01*
X152729208Y-57535210D01*
X152721921Y-57635935D01*
X152706903Y-57723153D01*
X152684615Y-57785791D01*
X152677765Y-57796579D01*
X152596632Y-57877105D01*
X152500266Y-57925336D01*
X152395701Y-57939450D01*
X152289968Y-57917629D01*
X152260543Y-57904547D01*
X152203241Y-57864231D01*
X152152950Y-57810775D01*
X152148197Y-57803995D01*
X152128878Y-57771321D01*
X152116108Y-57736394D01*
X152108564Y-57690414D01*
X152104924Y-57624584D01*
X152103865Y-57530105D01*
X152103846Y-57508923D01*
X152103894Y-57502182D01*
X152299231Y-57502182D01*
X152300368Y-57591349D01*
X152304841Y-57650520D01*
X152314246Y-57688741D01*
X152330176Y-57715053D01*
X152338308Y-57723846D01*
X152385058Y-57757261D01*
X152430447Y-57755737D01*
X152476340Y-57726752D01*
X152503712Y-57695809D01*
X152519923Y-57650643D01*
X152529026Y-57579420D01*
X152529651Y-57571114D01*
X152531204Y-57442037D01*
X152514965Y-57346172D01*
X152481152Y-57284107D01*
X152429984Y-57256432D01*
X152411720Y-57254923D01*
X152363760Y-57262513D01*
X152330953Y-57288808D01*
X152310895Y-57339095D01*
X152301178Y-57418664D01*
X152299231Y-57502182D01*
X152103894Y-57502182D01*
X152104574Y-57408249D01*
X152107629Y-57337906D01*
G36*
X155659846Y-56992120D02*
G01*
X155665572Y-57071980D01*
X155672149Y-57119039D01*
X155681262Y-57139566D01*
X155694598Y-57139829D01*
X155698923Y-57137378D01*
X155756444Y-57119636D01*
X155831268Y-57120672D01*
X155907339Y-57138910D01*
X155954918Y-57162505D01*
X156003702Y-57200198D01*
X156039364Y-57242855D01*
X156063845Y-57297057D01*
X156079087Y-57369384D01*
X156087030Y-57466419D01*
X156089616Y-57594742D01*
X156089662Y-57619358D01*
X156089692Y-57895870D01*
X156028161Y-57917320D01*
X155984459Y-57931912D01*
X155960482Y-57938706D01*
X155959777Y-57938769D01*
X155957415Y-57920345D01*
X155955406Y-57869526D01*
X155953901Y-57792993D01*
X155953053Y-57697430D01*
X155952923Y-57639329D01*
X155952651Y-57524771D01*
X155951252Y-57442667D01*
X155947849Y-57386393D01*
X155941567Y-57349326D01*
X155931529Y-57324844D01*
X155916861Y-57306325D01*
X155907702Y-57297406D01*
X155844789Y-57261466D01*
X155776136Y-57258775D01*
X155713848Y-57289170D01*
X155702329Y-57300144D01*
X155685433Y-57320779D01*
X155673714Y-57345256D01*
X155666233Y-57380647D01*
X155662054Y-57434026D01*
X155660237Y-57512466D01*
X155659846Y-57620617D01*
X155659846Y-57895870D01*
X155598315Y-57917320D01*
X155554613Y-57931912D01*
X155530636Y-57938706D01*
X155529930Y-57938769D01*
X155528126Y-57920069D01*
X155526500Y-57867322D01*
X155525117Y-57785557D01*
X155524042Y-57679805D01*
X155523340Y-57555094D01*
X155523077Y-57416455D01*
X155523077Y-56881806D01*
X155650077Y-56828236D01*
X155659846Y-56992120D01*
G37*
X155659846Y-56992120D02*
X155665572Y-57071980D01*
X155672149Y-57119039D01*
X155681262Y-57139566D01*
X155694598Y-57139829D01*
X155698923Y-57137378D01*
X155756444Y-57119636D01*
X155831268Y-57120672D01*
X155907339Y-57138910D01*
X155954918Y-57162505D01*
X156003702Y-57200198D01*
X156039364Y-57242855D01*
X156063845Y-57297057D01*
X156079087Y-57369384D01*
X156087030Y-57466419D01*
X156089616Y-57594742D01*
X156089662Y-57619358D01*
X156089692Y-57895870D01*
X156028161Y-57917320D01*
X155984459Y-57931912D01*
X155960482Y-57938706D01*
X155959777Y-57938769D01*
X155957415Y-57920345D01*
X155955406Y-57869526D01*
X155953901Y-57792993D01*
X155953053Y-57697430D01*
X155952923Y-57639329D01*
X155952651Y-57524771D01*
X155951252Y-57442667D01*
X155947849Y-57386393D01*
X155941567Y-57349326D01*
X155931529Y-57324844D01*
X155916861Y-57306325D01*
X155907702Y-57297406D01*
X155844789Y-57261466D01*
X155776136Y-57258775D01*
X155713848Y-57289170D01*
X155702329Y-57300144D01*
X155685433Y-57320779D01*
X155673714Y-57345256D01*
X155666233Y-57380647D01*
X155662054Y-57434026D01*
X155660237Y-57512466D01*
X155659846Y-57620617D01*
X155659846Y-57895870D01*
X155598315Y-57917320D01*
X155554613Y-57931912D01*
X155530636Y-57938706D01*
X155529930Y-57938769D01*
X155528126Y-57920069D01*
X155526500Y-57867322D01*
X155525117Y-57785557D01*
X155524042Y-57679805D01*
X155523340Y-57555094D01*
X155523077Y-57416455D01*
X155523077Y-56881806D01*
X155650077Y-56828236D01*
X155659846Y-56992120D01*
G36*
X157556362Y-57313577D02*
G01*
X157586528Y-57244269D01*
X157633629Y-57190211D01*
X157670312Y-57162505D01*
X157736990Y-57132572D01*
X157814272Y-57118678D01*
X157886110Y-57122397D01*
X157926308Y-57137400D01*
X157942082Y-57141670D01*
X157952550Y-57125750D01*
X157959856Y-57083089D01*
X157965385Y-57018106D01*
X157971437Y-56945732D01*
X157979844Y-56902187D01*
X157995141Y-56877287D01*
X158021864Y-56860845D01*
X158038654Y-56853564D01*
X158102154Y-56826963D01*
X158102081Y-57280289D01*
X158101833Y-57426320D01*
X158100872Y-57538655D01*
X158098794Y-57622678D01*
X158095193Y-57683769D01*
X158089665Y-57727309D01*
X158081804Y-57758679D01*
X158071207Y-57783262D01*
X158063182Y-57797294D01*
X157996728Y-57873388D01*
X157912470Y-57921084D01*
X157819249Y-57938199D01*
X157725900Y-57922546D01*
X157670312Y-57894418D01*
X157611957Y-57845760D01*
X157572186Y-57786333D01*
X157548190Y-57708507D01*
X157537161Y-57604652D01*
X157535599Y-57528462D01*
X157535809Y-57522986D01*
X157672308Y-57522986D01*
X157673141Y-57610355D01*
X157676961Y-57668192D01*
X157685746Y-57706029D01*
X157701474Y-57733398D01*
X157720266Y-57754042D01*
X157783375Y-57793890D01*
X157851137Y-57797295D01*
X157915179Y-57764025D01*
X157920164Y-57759517D01*
X157941439Y-57736067D01*
X157954779Y-57708166D01*
X157962001Y-57666641D01*
X157964923Y-57602316D01*
X157965385Y-57531200D01*
X157964383Y-57441858D01*
X157960238Y-57382258D01*
X157951236Y-57343089D01*
X157935667Y-57315040D01*
X157922902Y-57300144D01*
X157863600Y-57262575D01*
X157795301Y-57258057D01*
X157730110Y-57286753D01*
X157717528Y-57297406D01*
X157696111Y-57321063D01*
X157682744Y-57349251D01*
X157675566Y-57391245D01*
X157672719Y-57456319D01*
X157672308Y-57522986D01*
X157535809Y-57522986D01*
X157540322Y-57405765D01*
X157556362Y-57313577D01*
G37*
X157556362Y-57313577D02*
X157586528Y-57244269D01*
X157633629Y-57190211D01*
X157670312Y-57162505D01*
X157736990Y-57132572D01*
X157814272Y-57118678D01*
X157886110Y-57122397D01*
X157926308Y-57137400D01*
X157942082Y-57141670D01*
X157952550Y-57125750D01*
X157959856Y-57083089D01*
X157965385Y-57018106D01*
X157971437Y-56945732D01*
X157979844Y-56902187D01*
X157995141Y-56877287D01*
X158021864Y-56860845D01*
X158038654Y-56853564D01*
X158102154Y-56826963D01*
X158102081Y-57280289D01*
X158101833Y-57426320D01*
X158100872Y-57538655D01*
X158098794Y-57622678D01*
X158095193Y-57683769D01*
X158089665Y-57727309D01*
X158081804Y-57758679D01*
X158071207Y-57783262D01*
X158063182Y-57797294D01*
X157996728Y-57873388D01*
X157912470Y-57921084D01*
X157819249Y-57938199D01*
X157725900Y-57922546D01*
X157670312Y-57894418D01*
X157611957Y-57845760D01*
X157572186Y-57786333D01*
X157548190Y-57708507D01*
X157537161Y-57604652D01*
X157535599Y-57528462D01*
X157535809Y-57522986D01*
X157672308Y-57522986D01*
X157673141Y-57610355D01*
X157676961Y-57668192D01*
X157685746Y-57706029D01*
X157701474Y-57733398D01*
X157720266Y-57754042D01*
X157783375Y-57793890D01*
X157851137Y-57797295D01*
X157915179Y-57764025D01*
X157920164Y-57759517D01*
X157941439Y-57736067D01*
X157954779Y-57708166D01*
X157962001Y-57666641D01*
X157964923Y-57602316D01*
X157965385Y-57531200D01*
X157964383Y-57441858D01*
X157960238Y-57382258D01*
X157951236Y-57343089D01*
X157935667Y-57315040D01*
X157922902Y-57300144D01*
X157863600Y-57262575D01*
X157795301Y-57258057D01*
X157730110Y-57286753D01*
X157717528Y-57297406D01*
X157696111Y-57321063D01*
X157682744Y-57349251D01*
X157675566Y-57391245D01*
X157672719Y-57456319D01*
X157672308Y-57522986D01*
X157535809Y-57522986D01*
X157540322Y-57405765D01*
X157556362Y-57313577D01*
G36*
X157213362Y-57124670D02*
G01*
X157302117Y-57157421D01*
X157374022Y-57215350D01*
X157402144Y-57256128D01*
X157432802Y-57330954D01*
X157432165Y-57385058D01*
X157399987Y-57421446D01*
X157388081Y-57427633D01*
X157336675Y-57446925D01*
X157310422Y-57441982D01*
X157301530Y-57409587D01*
X157301077Y-57391692D01*
X157284797Y-57325859D01*
X157242365Y-57279807D01*
X157183388Y-57257564D01*
X157117475Y-57263161D01*
X157063895Y-57292229D01*
X157045798Y-57308810D01*
X157032971Y-57328925D01*
X157024306Y-57359332D01*
X157018696Y-57406788D01*
X157015035Y-57478050D01*
X157012215Y-57579875D01*
X157011484Y-57612115D01*
X157008820Y-57722410D01*
X157005792Y-57800036D01*
X157001250Y-57851396D01*
X156994046Y-57882890D01*
X156983033Y-57900920D01*
X156967060Y-57911888D01*
X156956834Y-57916733D01*
X156913406Y-57933301D01*
X156887842Y-57938769D01*
X156879395Y-57920507D01*
X156874239Y-57865296D01*
X156872346Y-57772499D01*
X156873689Y-57641478D01*
X156874107Y-57621269D01*
X156877058Y-57501733D01*
X156880548Y-57414449D01*
X156885514Y-57352591D01*
X156892893Y-57309336D01*
X156903624Y-57277860D01*
X156918645Y-57251339D01*
X156926502Y-57239975D01*
X156971553Y-57189692D01*
X157021940Y-57150581D01*
X157028108Y-57147167D01*
X157118458Y-57120212D01*
X157213362Y-57124670D01*
G37*
X157213362Y-57124670D02*
X157302117Y-57157421D01*
X157374022Y-57215350D01*
X157402144Y-57256128D01*
X157432802Y-57330954D01*
X157432165Y-57385058D01*
X157399987Y-57421446D01*
X157388081Y-57427633D01*
X157336675Y-57446925D01*
X157310422Y-57441982D01*
X157301530Y-57409587D01*
X157301077Y-57391692D01*
X157284797Y-57325859D01*
X157242365Y-57279807D01*
X157183388Y-57257564D01*
X157117475Y-57263161D01*
X157063895Y-57292229D01*
X157045798Y-57308810D01*
X157032971Y-57328925D01*
X157024306Y-57359332D01*
X157018696Y-57406788D01*
X157015035Y-57478050D01*
X157012215Y-57579875D01*
X157011484Y-57612115D01*
X157008820Y-57722410D01*
X157005792Y-57800036D01*
X157001250Y-57851396D01*
X156994046Y-57882890D01*
X156983033Y-57900920D01*
X156967060Y-57911888D01*
X156956834Y-57916733D01*
X156913406Y-57933301D01*
X156887842Y-57938769D01*
X156879395Y-57920507D01*
X156874239Y-57865296D01*
X156872346Y-57772499D01*
X156873689Y-57641478D01*
X156874107Y-57621269D01*
X156877058Y-57501733D01*
X156880548Y-57414449D01*
X156885514Y-57352591D01*
X156892893Y-57309336D01*
X156903624Y-57277860D01*
X156918645Y-57251339D01*
X156926502Y-57239975D01*
X156971553Y-57189692D01*
X157021940Y-57150581D01*
X157028108Y-57147167D01*
X157118458Y-57120212D01*
X157213362Y-57124670D01*
G36*
X154771664Y-57095089D02*
G01*
X154834367Y-57131358D01*
X154877961Y-57167358D01*
X154909845Y-57205075D01*
X154931810Y-57251199D01*
X154945649Y-57312421D01*
X154953153Y-57395431D01*
X154956117Y-57506919D01*
X154956461Y-57587062D01*
X154956461Y-57882065D01*
X154790385Y-57956515D01*
X154780615Y-57633402D01*
X154776579Y-57512729D01*
X154772344Y-57425141D01*
X154767097Y-57364650D01*
X154760025Y-57325268D01*
X154750311Y-57301007D01*
X154737144Y-57285880D01*
X154732919Y-57282606D01*
X154668909Y-57257034D01*
X154604208Y-57267153D01*
X154565692Y-57294000D01*
X154550025Y-57313024D01*
X154539180Y-57337988D01*
X154532288Y-57375834D01*
X154528479Y-57433502D01*
X154526883Y-57517935D01*
X154526615Y-57605928D01*
X154526563Y-57716323D01*
X154524672Y-57794463D01*
X154518345Y-57847165D01*
X154504983Y-57881242D01*
X154481985Y-57903511D01*
X154446754Y-57920787D01*
X154399697Y-57938738D01*
X154348303Y-57958278D01*
X154354421Y-57611485D01*
X154356884Y-57486468D01*
X154359767Y-57394082D01*
X154363898Y-57327881D01*
X154370107Y-57281420D01*
X154379226Y-57248256D01*
X154392083Y-57221944D01*
X154407584Y-57198729D01*
X154482371Y-57124569D01*
X154573628Y-57081684D01*
X154672883Y-57071412D01*
X154771664Y-57095089D01*
G37*
X154771664Y-57095089D02*
X154834367Y-57131358D01*
X154877961Y-57167358D01*
X154909845Y-57205075D01*
X154931810Y-57251199D01*
X154945649Y-57312421D01*
X154953153Y-57395431D01*
X154956117Y-57506919D01*
X154956461Y-57587062D01*
X154956461Y-57882065D01*
X154790385Y-57956515D01*
X154780615Y-57633402D01*
X154776579Y-57512729D01*
X154772344Y-57425141D01*
X154767097Y-57364650D01*
X154760025Y-57325268D01*
X154750311Y-57301007D01*
X154737144Y-57285880D01*
X154732919Y-57282606D01*
X154668909Y-57257034D01*
X154604208Y-57267153D01*
X154565692Y-57294000D01*
X154550025Y-57313024D01*
X154539180Y-57337988D01*
X154532288Y-57375834D01*
X154528479Y-57433502D01*
X154526883Y-57517935D01*
X154526615Y-57605928D01*
X154526563Y-57716323D01*
X154524672Y-57794463D01*
X154518345Y-57847165D01*
X154504983Y-57881242D01*
X154481985Y-57903511D01*
X154446754Y-57920787D01*
X154399697Y-57938738D01*
X154348303Y-57958278D01*
X154354421Y-57611485D01*
X154356884Y-57486468D01*
X154359767Y-57394082D01*
X154363898Y-57327881D01*
X154370107Y-57281420D01*
X154379226Y-57248256D01*
X154392083Y-57221944D01*
X154407584Y-57198729D01*
X154482371Y-57124569D01*
X154573628Y-57081684D01*
X154672883Y-57071412D01*
X154771664Y-57095089D01*
G36*
X156553501Y-57126303D02*
G01*
X156630060Y-57154733D01*
X156630936Y-57155279D01*
X156678285Y-57190127D01*
X156713241Y-57230852D01*
X156737825Y-57283925D01*
X156754062Y-57355814D01*
X156763975Y-57452992D01*
X156769586Y-57581928D01*
X156770077Y-57600298D01*
X156777141Y-57877287D01*
X156717695Y-57908028D01*
X156674681Y-57928802D01*
X156648710Y-57938646D01*
X156647509Y-57938769D01*
X156643014Y-57920606D01*
X156639444Y-57871612D01*
X156637248Y-57800031D01*
X156636769Y-57742068D01*
X156636758Y-57648170D01*
X156632466Y-57589203D01*
X156617503Y-57561079D01*
X156585482Y-57559706D01*
X156530014Y-57580998D01*
X156446269Y-57620136D01*
X156384689Y-57652643D01*
X156353017Y-57680845D01*
X156343706Y-57711582D01*
X156343692Y-57713104D01*
X156359057Y-57766054D01*
X156404547Y-57794660D01*
X156474166Y-57798803D01*
X156524313Y-57798084D01*
X156550754Y-57812527D01*
X156567243Y-57847218D01*
X156576733Y-57891416D01*
X156563057Y-57916493D01*
X156557907Y-57920082D01*
X156509425Y-57934496D01*
X156441531Y-57936537D01*
X156371612Y-57926983D01*
X156322068Y-57909522D01*
X156253570Y-57851364D01*
X156214634Y-57770408D01*
X156206923Y-57707160D01*
X156212807Y-57650111D01*
X156234101Y-57603542D01*
X156276265Y-57562181D01*
X156344759Y-57520755D01*
X156445044Y-57473993D01*
X156451154Y-57471350D01*
X156541490Y-57429617D01*
X156597235Y-57395391D01*
X156621129Y-57364635D01*
X156615913Y-57333311D01*
X156584328Y-57297383D01*
X156574883Y-57289116D01*
X156511617Y-57257058D01*
X156446064Y-57258407D01*
X156388972Y-57289838D01*
X156351093Y-57348024D01*
X156347574Y-57359446D01*
X156313300Y-57414837D01*
X156269809Y-57441518D01*
X156206923Y-57467960D01*
X156206923Y-57399548D01*
X156226052Y-57300110D01*
X156282831Y-57208902D01*
X156312378Y-57178389D01*
X156379542Y-57139228D01*
X156464956Y-57121500D01*
X156553501Y-57126303D01*
G37*
X156553501Y-57126303D02*
X156630060Y-57154733D01*
X156630936Y-57155279D01*
X156678285Y-57190127D01*
X156713241Y-57230852D01*
X156737825Y-57283925D01*
X156754062Y-57355814D01*
X156763975Y-57452992D01*
X156769586Y-57581928D01*
X156770077Y-57600298D01*
X156777141Y-57877287D01*
X156717695Y-57908028D01*
X156674681Y-57928802D01*
X156648710Y-57938646D01*
X156647509Y-57938769D01*
X156643014Y-57920606D01*
X156639444Y-57871612D01*
X156637248Y-57800031D01*
X156636769Y-57742068D01*
X156636758Y-57648170D01*
X156632466Y-57589203D01*
X156617503Y-57561079D01*
X156585482Y-57559706D01*
X156530014Y-57580998D01*
X156446269Y-57620136D01*
X156384689Y-57652643D01*
X156353017Y-57680845D01*
X156343706Y-57711582D01*
X156343692Y-57713104D01*
X156359057Y-57766054D01*
X156404547Y-57794660D01*
X156474166Y-57798803D01*
X156524313Y-57798084D01*
X156550754Y-57812527D01*
X156567243Y-57847218D01*
X156576733Y-57891416D01*
X156563057Y-57916493D01*
X156557907Y-57920082D01*
X156509425Y-57934496D01*
X156441531Y-57936537D01*
X156371612Y-57926983D01*
X156322068Y-57909522D01*
X156253570Y-57851364D01*
X156214634Y-57770408D01*
X156206923Y-57707160D01*
X156212807Y-57650111D01*
X156234101Y-57603542D01*
X156276265Y-57562181D01*
X156344759Y-57520755D01*
X156445044Y-57473993D01*
X156451154Y-57471350D01*
X156541490Y-57429617D01*
X156597235Y-57395391D01*
X156621129Y-57364635D01*
X156615913Y-57333311D01*
X156584328Y-57297383D01*
X156574883Y-57289116D01*
X156511617Y-57257058D01*
X156446064Y-57258407D01*
X156388972Y-57289838D01*
X156351093Y-57348024D01*
X156347574Y-57359446D01*
X156313300Y-57414837D01*
X156269809Y-57441518D01*
X156206923Y-57467960D01*
X156206923Y-57399548D01*
X156226052Y-57300110D01*
X156282831Y-57208902D01*
X156312378Y-57178389D01*
X156379542Y-57139228D01*
X156464956Y-57121500D01*
X156553501Y-57126303D01*
D12*
%TO.C,J2*%
X115360000Y-84670000D02*
X115360000Y-89870000D01*
X153580000Y-89870000D02*
X115360000Y-89870000D01*
X152250000Y-84670000D02*
X153580000Y-84670000D01*
X150980000Y-84670000D02*
X150980000Y-87270000D01*
X153580000Y-84670000D02*
X153580000Y-86000000D01*
X150980000Y-84670000D02*
X115360000Y-84670000D01*
X150980000Y-87270000D02*
X153580000Y-87270000D01*
X153580000Y-87270000D02*
X153580000Y-89870000D01*
%TD*%
M02*
