%TF.GenerationSoftware,KiCad,Pcbnew,(6.0.5-0)*%
%TF.CreationDate,2022-07-06T11:09:21-04:00*%
%TF.ProjectId,SVI328MSX,53564933-3238-44d5-9358-2e6b69636164,rev?*%
%TF.SameCoordinates,Original*%
%TF.FileFunction,Copper,L1,Top*%
%TF.FilePolarity,Positive*%
%FSLAX46Y46*%
G04 Gerber Fmt 4.6, Leading zero omitted, Abs format (unit mm)*
G04 Created by KiCad (PCBNEW (6.0.5-0)) date 2022-07-06 11:09:21*
%MOMM*%
%LPD*%
G01*
G04 APERTURE LIST*
%TA.AperFunction,ConnectorPad*%
%ADD10R,1.500000X11.000000*%
%TD*%
%TA.AperFunction,ComponentPad*%
%ADD11R,1.600000X1.600000*%
%TD*%
%TA.AperFunction,ComponentPad*%
%ADD12O,1.600000X1.600000*%
%TD*%
%TA.AperFunction,ComponentPad*%
%ADD13C,1.600000*%
%TD*%
%TA.AperFunction,ComponentPad*%
%ADD14R,1.700000X1.700000*%
%TD*%
%TA.AperFunction,ComponentPad*%
%ADD15O,1.700000X1.700000*%
%TD*%
%TA.AperFunction,Conductor*%
%ADD16C,0.250000*%
%TD*%
%TA.AperFunction,Conductor*%
%ADD17C,1.000000*%
%TD*%
G04 APERTURE END LIST*
D10*
%TO.P,J1,2*%
%TO.N,VCC*%
X152240000Y-98000000D03*
%TO.P,J1,4*%
%TO.N,A12*%
X149700000Y-98000000D03*
%TO.P,J1,6*%
%TO.N,A13*%
X147160000Y-98000000D03*
%TO.P,J1,8*%
%TO.N,A8*%
X144620000Y-98000000D03*
%TO.P,J1,10*%
%TO.N,A9*%
X142080000Y-98000000D03*
%TO.P,J1,12*%
%TO.N,A11*%
X139540000Y-98000000D03*
%TO.P,J1,14*%
%TO.N,A2*%
X137000000Y-98000000D03*
%TO.P,J1,16*%
%TO.N,A1*%
X134460000Y-98000000D03*
%TO.P,J1,18*%
%TO.N,D7*%
X131920000Y-98000000D03*
%TO.P,J1,20*%
%TO.N,D6*%
X129380000Y-98000000D03*
%TO.P,J1,22*%
%TO.N,D5*%
X126840000Y-98000000D03*
%TO.P,J1,24*%
%TO.N,D4*%
X124300000Y-98000000D03*
%TO.P,J1,26*%
%TO.N,Net-(J1-Pad26)*%
X121760000Y-98000000D03*
%TO.P,J1,28*%
%TO.N,CS2*%
X119220000Y-98000000D03*
%TO.P,J1,30*%
%TO.N,GND*%
X116680000Y-98000000D03*
%TD*%
D11*
%TO.P,U2,1*%
%TO.N,CS1*%
X133500000Y-51000000D03*
D12*
%TO.P,U2,2*%
%TO.N,CS2*%
X130960000Y-51000000D03*
%TO.P,U2,3*%
%TO.N,Net-(U1-Pad20)*%
X128420000Y-51000000D03*
%TO.P,U2,4*%
%TO.N,GND*%
X125880000Y-51000000D03*
%TO.P,U2,5*%
X123340000Y-51000000D03*
%TO.P,U2,6*%
%TO.N,Net-(U2-Pad6)*%
X120800000Y-51000000D03*
%TO.P,U2,7*%
%TO.N,GND*%
X118260000Y-51000000D03*
%TO.P,U2,8*%
%TO.N,Net-(U2-Pad8)*%
X118260000Y-58620000D03*
%TO.P,U2,9*%
%TO.N,GND*%
X120800000Y-58620000D03*
%TO.P,U2,10*%
X123340000Y-58620000D03*
%TO.P,U2,11*%
%TO.N,Net-(U2-Pad11)*%
X125880000Y-58620000D03*
%TO.P,U2,12*%
%TO.N,GND*%
X128420000Y-58620000D03*
%TO.P,U2,13*%
X130960000Y-58620000D03*
%TO.P,U2,14*%
%TO.N,VCC*%
X133500000Y-58620000D03*
%TD*%
D11*
%TO.P,U1,1*%
%TO.N,VCC*%
X151250000Y-64000000D03*
D12*
%TO.P,U1,2*%
%TO.N,A12*%
X148710000Y-64000000D03*
%TO.P,U1,3*%
%TO.N,A7*%
X146170000Y-64000000D03*
%TO.P,U1,4*%
%TO.N,A6*%
X143630000Y-64000000D03*
%TO.P,U1,5*%
%TO.N,A5*%
X141090000Y-64000000D03*
%TO.P,U1,6*%
%TO.N,A4*%
X138550000Y-64000000D03*
%TO.P,U1,7*%
%TO.N,A3*%
X136010000Y-64000000D03*
%TO.P,U1,8*%
%TO.N,A2*%
X133470000Y-64000000D03*
%TO.P,U1,9*%
%TO.N,A1*%
X130930000Y-64000000D03*
%TO.P,U1,10*%
%TO.N,A0*%
X128390000Y-64000000D03*
%TO.P,U1,11*%
%TO.N,D0*%
X125850000Y-64000000D03*
%TO.P,U1,12*%
%TO.N,D1*%
X123310000Y-64000000D03*
%TO.P,U1,13*%
%TO.N,D2*%
X120770000Y-64000000D03*
%TO.P,U1,14*%
%TO.N,GND*%
X118230000Y-64000000D03*
%TO.P,U1,15*%
%TO.N,D3*%
X118230000Y-79240000D03*
%TO.P,U1,16*%
%TO.N,D4*%
X120770000Y-79240000D03*
%TO.P,U1,17*%
%TO.N,D5*%
X123310000Y-79240000D03*
%TO.P,U1,18*%
%TO.N,D6*%
X125850000Y-79240000D03*
%TO.P,U1,19*%
%TO.N,D7*%
X128390000Y-79240000D03*
%TO.P,U1,20*%
%TO.N,Net-(U1-Pad20)*%
X130930000Y-79240000D03*
%TO.P,U1,21*%
%TO.N,A10*%
X133470000Y-79240000D03*
%TO.P,U1,22*%
%TO.N,Net-(U1-Pad20)*%
X136010000Y-79240000D03*
%TO.P,U1,23*%
%TO.N,A11*%
X138550000Y-79240000D03*
%TO.P,U1,24*%
%TO.N,A9*%
X141090000Y-79240000D03*
%TO.P,U1,25*%
%TO.N,A8*%
X143630000Y-79240000D03*
%TO.P,U1,26*%
%TO.N,A13*%
X146170000Y-79240000D03*
%TO.P,U1,27*%
%TO.N,CS1*%
X148710000Y-79240000D03*
%TO.P,U1,28*%
%TO.N,VCC*%
X151250000Y-79240000D03*
%TD*%
D13*
%TO.P,C1,1*%
%TO.N,VCC*%
X138750000Y-58750000D03*
%TO.P,C1,2*%
%TO.N,GND*%
X138750000Y-53750000D03*
%TD*%
D14*
%TO.P,J2,1*%
%TO.N,VCC*%
X152250000Y-86000000D03*
D15*
%TO.P,J2,2*%
X152250000Y-88540000D03*
%TO.P,J2,3*%
%TO.N,A7*%
X149710000Y-86000000D03*
%TO.P,J2,4*%
%TO.N,A12*%
X149710000Y-88540000D03*
%TO.P,J2,5*%
%TO.N,A6*%
X147170000Y-86000000D03*
%TO.P,J2,6*%
%TO.N,A13*%
X147170000Y-88540000D03*
%TO.P,J2,7*%
%TO.N,A5*%
X144630000Y-86000000D03*
%TO.P,J2,8*%
%TO.N,A8*%
X144630000Y-88540000D03*
%TO.P,J2,9*%
%TO.N,A4*%
X142090000Y-86000000D03*
%TO.P,J2,10*%
%TO.N,A9*%
X142090000Y-88540000D03*
%TO.P,J2,11*%
%TO.N,A3*%
X139550000Y-86000000D03*
%TO.P,J2,12*%
%TO.N,A11*%
X139550000Y-88540000D03*
%TO.P,J2,13*%
%TO.N,A10*%
X137010000Y-86000000D03*
%TO.P,J2,14*%
%TO.N,A2*%
X137010000Y-88540000D03*
%TO.P,J2,15*%
%TO.N,A0*%
X134470000Y-86000000D03*
%TO.P,J2,16*%
%TO.N,A1*%
X134470000Y-88540000D03*
%TO.P,J2,17*%
%TO.N,D0*%
X131930000Y-86000000D03*
%TO.P,J2,18*%
%TO.N,D7*%
X131930000Y-88540000D03*
%TO.P,J2,19*%
%TO.N,D1*%
X129390000Y-86000000D03*
%TO.P,J2,20*%
%TO.N,D6*%
X129390000Y-88540000D03*
%TO.P,J2,21*%
%TO.N,D2*%
X126850000Y-86000000D03*
%TO.P,J2,22*%
%TO.N,D5*%
X126850000Y-88540000D03*
%TO.P,J2,23*%
%TO.N,D3*%
X124310000Y-86000000D03*
%TO.P,J2,24*%
%TO.N,D4*%
X124310000Y-88540000D03*
%TO.P,J2,25*%
%TO.N,Net-(J2-Pad25)*%
X121770000Y-86000000D03*
%TO.P,J2,26*%
%TO.N,Net-(J2-Pad26)*%
X121770000Y-88540000D03*
%TO.P,J2,27*%
%TO.N,CS1*%
X119230000Y-86000000D03*
%TO.P,J2,28*%
%TO.N,CS2*%
X119230000Y-88540000D03*
%TO.P,J2,29*%
%TO.N,GND*%
X116690000Y-86000000D03*
%TO.P,J2,30*%
X116690000Y-88540000D03*
%TD*%
D16*
%TO.N,A0*%
X129804999Y-81334999D02*
X129804999Y-65414999D01*
X129804999Y-65414999D02*
X128390000Y-64000000D01*
X134470000Y-86000000D02*
X129804999Y-81334999D01*
%TO.N,A10*%
X137010000Y-86000000D02*
X133470000Y-82460000D01*
X133470000Y-82460000D02*
X133470000Y-79240000D01*
%TO.N,A3*%
X137424999Y-83874999D02*
X137424999Y-65414999D01*
X137424999Y-65414999D02*
X136010000Y-64000000D01*
X139550000Y-86000000D02*
X137424999Y-83874999D01*
%TO.N,A4*%
X142090000Y-86000000D02*
X139964999Y-83874999D01*
X139964999Y-83874999D02*
X139964999Y-65414999D01*
X139964999Y-65414999D02*
X138550000Y-64000000D01*
%TO.N,A5*%
X142504999Y-83874999D02*
X142504999Y-65414999D01*
X142504999Y-65414999D02*
X141090000Y-64000000D01*
X144630000Y-86000000D02*
X142504999Y-83874999D01*
%TO.N,A6*%
X145044999Y-83874999D02*
X145044999Y-65414999D01*
X147170000Y-86000000D02*
X145044999Y-83874999D01*
X145044999Y-65414999D02*
X143630000Y-64000000D01*
%TO.N,A7*%
X147584999Y-83874999D02*
X147584999Y-65414999D01*
X147584999Y-65414999D02*
X146170000Y-64000000D01*
X149710000Y-86000000D02*
X147584999Y-83874999D01*
D17*
%TO.N,VCC*%
X152250000Y-87500000D02*
X152250000Y-80240000D01*
X152240000Y-98000000D02*
X152240000Y-87510000D01*
D16*
X152240000Y-86010000D02*
X152250000Y-86000000D01*
D17*
X152250000Y-80240000D02*
X151250000Y-79240000D01*
X146000000Y-58750000D02*
X138750000Y-58750000D01*
X138750000Y-58750000D02*
X133630000Y-58750000D01*
D16*
X133630000Y-58750000D02*
X133500000Y-58620000D01*
D17*
X151250000Y-64000000D02*
X146000000Y-58750000D01*
X151250000Y-79240000D02*
X151250000Y-64000000D01*
D16*
%TO.N,CS2*%
X117104999Y-79780001D02*
X117104999Y-50489999D01*
X117104999Y-50489999D02*
X117719999Y-49874999D01*
X129834999Y-49874999D02*
X130960000Y-51000000D01*
X119220000Y-98000000D02*
X119220000Y-88550000D01*
X120405001Y-83080003D02*
X117104999Y-79780001D01*
X117719999Y-49874999D02*
X129834999Y-49874999D01*
X120405001Y-87364999D02*
X120405001Y-83080003D01*
X119230000Y-88540000D02*
X120405001Y-87364999D01*
X119220000Y-88550000D02*
X119230000Y-88540000D01*
%TO.N,CS1*%
X117533599Y-49424989D02*
X131924989Y-49424989D01*
X131924989Y-49424989D02*
X133500000Y-51000000D01*
X132374999Y-52125001D02*
X132374999Y-59160001D01*
X116654990Y-83424990D02*
X116654990Y-50303598D01*
X133500000Y-51000000D02*
X132374999Y-52125001D01*
X132374999Y-59160001D02*
X136089997Y-62874999D01*
X147584999Y-63749997D02*
X147584999Y-64778589D01*
X136089997Y-62874999D02*
X146710001Y-62874999D01*
X119230000Y-86000000D02*
X116654990Y-83424990D01*
X146710001Y-62874999D02*
X147584999Y-63749997D01*
X148710000Y-65903590D02*
X148710000Y-79240000D01*
X147584999Y-64778589D02*
X148710000Y-65903590D01*
X116654990Y-50303598D02*
X117533599Y-49424989D01*
D17*
%TO.N,GND*%
X116700000Y-97190000D02*
X116700000Y-86700000D01*
D16*
X116680000Y-86010000D02*
X116690000Y-86000000D01*
%TO.N,D2*%
X122184999Y-81334999D02*
X122184999Y-65414999D01*
X126850000Y-86000000D02*
X122184999Y-81334999D01*
X122184999Y-65414999D02*
X120770000Y-64000000D01*
%TO.N,A13*%
X148345001Y-85275001D02*
X146170000Y-83100000D01*
X147170000Y-88540000D02*
X148345001Y-87364999D01*
X148345001Y-87364999D02*
X148345001Y-85271411D01*
X147160000Y-98000000D02*
X147160000Y-88550000D01*
X147160000Y-88550000D02*
X147170000Y-88540000D01*
X146170000Y-83100000D02*
X146170000Y-79240000D01*
%TO.N,D1*%
X129390000Y-86000000D02*
X124724999Y-81334999D01*
X124724999Y-81334999D02*
X124724999Y-65414999D01*
X124724999Y-65414999D02*
X123310000Y-64000000D01*
%TO.N,A8*%
X144620000Y-98000000D02*
X144620000Y-88550000D01*
X143630000Y-83096410D02*
X143630000Y-79240000D01*
X145805001Y-87364999D02*
X145805001Y-85271411D01*
X145805001Y-85271411D02*
X143630000Y-83096410D01*
X144630000Y-88540000D02*
X145805001Y-87364999D01*
X144620000Y-88550000D02*
X144630000Y-88540000D01*
%TO.N,D0*%
X127264999Y-81334999D02*
X127264999Y-65414999D01*
X131930000Y-86000000D02*
X127264999Y-81334999D01*
X127264999Y-65414999D02*
X125850000Y-64000000D01*
%TO.N,A9*%
X143265001Y-87364999D02*
X143265001Y-85271411D01*
X143265001Y-85271411D02*
X141090000Y-83096410D01*
X142080000Y-88550000D02*
X142090000Y-88540000D01*
X142090000Y-88540000D02*
X143265001Y-87364999D01*
X141090000Y-83096410D02*
X141090000Y-79240000D01*
X142080000Y-98000000D02*
X142080000Y-88550000D01*
%TO.N,A11*%
X139540000Y-98000000D02*
X139540000Y-88550000D01*
X139540000Y-88550000D02*
X139550000Y-88540000D01*
X139550000Y-88540000D02*
X140725001Y-87364999D01*
X138550000Y-83096410D02*
X138550000Y-79240000D01*
X140725001Y-87364999D02*
X140725001Y-85271411D01*
X140725001Y-85271411D02*
X138550000Y-83096410D01*
%TO.N,A1*%
X135645001Y-85271411D02*
X132055001Y-81681411D01*
X134460000Y-98000000D02*
X134460000Y-88550000D01*
X132055001Y-65125001D02*
X130930000Y-64000000D01*
X132055001Y-81681411D02*
X132055001Y-65125001D01*
X134470000Y-88540000D02*
X135645001Y-87364999D01*
X135645001Y-87364999D02*
X135645001Y-85271411D01*
X134460000Y-88550000D02*
X134470000Y-88540000D01*
%TO.N,A2*%
X137000000Y-88550000D02*
X137010000Y-88540000D01*
X137010000Y-88540000D02*
X138185001Y-87364999D01*
X134595001Y-81681411D02*
X134595001Y-65125001D01*
X134595001Y-65125001D02*
X133470000Y-64000000D01*
X138185001Y-85271411D02*
X134595001Y-81681411D01*
X137000000Y-98000000D02*
X137000000Y-88550000D01*
X138185001Y-87364999D02*
X138185001Y-85271411D01*
%TO.N,D7*%
X128390000Y-80556410D02*
X128390000Y-79240000D01*
X131920000Y-98000000D02*
X131920000Y-88550000D01*
X133105001Y-85271411D02*
X128390000Y-80556410D01*
X131930000Y-88540000D02*
X133105001Y-87364999D01*
X131920000Y-88550000D02*
X131930000Y-88540000D01*
X133105001Y-87364999D02*
X133105001Y-85271411D01*
%TO.N,D6*%
X129380000Y-88550000D02*
X129390000Y-88540000D01*
X130565001Y-87364999D02*
X130565001Y-85271411D01*
X125850000Y-80556410D02*
X125850000Y-79240000D01*
X129380000Y-98000000D02*
X129380000Y-88550000D01*
X129390000Y-88540000D02*
X130565001Y-87364999D01*
X130565001Y-85271411D02*
X125850000Y-80556410D01*
%TO.N,D5*%
X128025001Y-87364999D02*
X128025001Y-85271411D01*
X128025001Y-85271411D02*
X123310000Y-80556410D01*
X126840000Y-88550000D02*
X126850000Y-88540000D01*
X126840000Y-98000000D02*
X126840000Y-88550000D01*
X126850000Y-88540000D02*
X128025001Y-87364999D01*
X123310000Y-80556410D02*
X123310000Y-79240000D01*
%TO.N,D4*%
X124310000Y-88540000D02*
X125485001Y-87364999D01*
X120770000Y-80556410D02*
X120770000Y-79240000D01*
X124300000Y-98000000D02*
X124300000Y-88550000D01*
X124300000Y-88550000D02*
X124310000Y-88540000D01*
X125485001Y-85271411D02*
X120770000Y-80556410D01*
X125485001Y-87364999D02*
X125485001Y-85271411D01*
%TO.N,A12*%
X149710000Y-87739002D02*
X151074999Y-86374003D01*
X149835001Y-65125001D02*
X148710000Y-64000000D01*
X151074999Y-86374003D02*
X151074999Y-80730001D01*
X149835001Y-79490003D02*
X149835001Y-65125001D01*
X149710000Y-88540000D02*
X149710000Y-87739002D01*
X151074999Y-80730001D02*
X149835001Y-79490003D01*
X149700000Y-98000000D02*
X149700000Y-88550000D01*
X149700000Y-88550000D02*
X149710000Y-88540000D01*
%TO.N,D3*%
X124310000Y-86000000D02*
X118230000Y-79920000D01*
X118230000Y-79920000D02*
X118230000Y-79240000D01*
%TO.N,Net-(U1-Pad20)*%
X129804999Y-64778589D02*
X130930000Y-65903590D01*
X130930000Y-65903590D02*
X130930000Y-79240000D01*
X129804999Y-52384999D02*
X129804999Y-64778589D01*
X128420000Y-51000000D02*
X129804999Y-52384999D01*
%TD*%
M02*
